<svg width="142" height="47" viewBox="0 0 142 47" fill="none" xmlns="http://www.w3.org/2000/svg">
<path d="M36.8422 0.346621H30.013C29.5716 0.346621 29.4336 0.49838 29.4336 0.926065V2.16773C29.4336 2.60921 29.5716 2.76097 30.013 2.76097H32.0687V9.56255C32.0687 9.99024 32.2067 10.142 32.6481 10.142H34.2071C34.6486 10.142 34.8004 9.99024 34.8004 9.56255V2.76097H36.8422C37.2837 2.76097 37.4355 2.60921 37.4355 2.16773V0.926065C37.4355 0.49838 37.2837 0.346621 36.8422 0.346621Z" fill="black"/>
<path d="M46.7278 0.332825H45.155C44.7273 0.332825 44.5756 0.484584 44.5756 0.926065V3.97505H41.8991V0.926065C41.8991 0.484584 41.7611 0.332825 41.3196 0.332825H39.7607C39.3192 0.332825 39.1674 0.484584 39.1674 0.926065V9.56255C39.1674 9.99024 39.3192 10.142 39.7607 10.142H41.3196C41.7611 10.142 41.8991 9.99024 41.8991 9.56255V6.3894H44.5756V9.56255C44.5756 9.99024 44.7273 10.142 45.155 10.142H46.7278C47.1555 10.142 47.3072 9.99024 47.3072 9.56255V0.926065C47.3072 0.484584 47.1555 0.332825 46.7278 0.332825Z" fill="black"/>
<path d="M55.9635 0.346621H50.1828C49.7413 0.346621 49.5896 0.49838 49.5896 0.926065V9.56255C49.5896 9.99024 49.7413 10.142 50.1828 10.142H56.0876C56.5153 10.142 56.6671 9.99024 56.6671 9.56255V8.30709C56.6671 7.86561 56.5153 7.72764 56.0876 7.72764H52.3212V6.4032H55.2323C55.6737 6.4032 55.8255 6.25144 55.8255 5.80996V4.56829C55.8255 4.1406 55.6737 3.98884 55.2323 3.98884H52.3212V2.76097H55.9635C56.4049 2.76097 56.5567 2.60921 56.5567 2.16773V0.926065C56.5567 0.49838 56.4049 0.346621 55.9635 0.346621Z" fill="black"/>
<path fill-rule="evenodd" clip-rule="evenodd" d="M21.0725 14.9209H28.5331C32.75 14.9209 35.5071 17.3807 35.5071 21.6787C35.5071 25.9496 32.777 28.3554 28.5872 28.3554H25.2623V32.9777C25.2623 33.8157 24.992 34.113 24.127 34.113H21.0725C20.2075 34.113 19.9102 33.8157 19.9102 32.9777V16.0562C19.9102 15.2182 20.2075 14.9209 21.0725 14.9209ZM25.2623 23.6249H27.9384C29.2089 23.6249 29.9657 22.841 29.9657 21.6516C29.9657 20.4623 29.2089 19.6513 27.9384 19.6513H25.2623V23.6249Z" fill="#135CE9"/>
<path d="M37.5199 14.9209H50.9003C51.7653 14.9209 52.0627 15.2182 52.0627 16.0562V18.489C52.0627 19.354 51.7653 19.6513 50.9003 19.6513H46.8997V32.9777C46.8997 33.8157 46.6024 34.113 45.7374 34.113H42.6828C41.8178 34.113 41.5475 33.8157 41.5475 32.9777V19.6513H37.5199C36.6549 19.6513 36.3846 19.354 36.3846 18.489V16.0562C36.3846 15.2182 36.6549 14.9209 37.5199 14.9209Z" fill="#135CE9"/>
<path d="M65.4306 14.8938H68.5122C69.3501 14.8938 69.6475 15.1912 69.6475 16.0562V32.9777C69.6475 33.8157 69.3501 34.113 68.5122 34.113H65.4306C64.5927 34.113 64.2953 33.8157 64.2953 32.9777V27.9232H67.018L61.7132 23.3956L56.312 27.9232H59.0513V32.9777C59.0513 33.8157 58.7809 34.113 57.916 34.113H54.8614C53.9964 34.113 53.6991 33.8157 53.6991 32.9777V16.0562C53.6991 15.1912 53.9964 14.8938 54.8614 14.8938H57.916C58.7809 14.8938 59.0513 15.1912 59.0513 16.0562V22.0301H64.2953V16.0562C64.2953 15.1912 64.5927 14.8938 65.4306 14.8938Z" fill="#135CE9"/>
<path fill-rule="evenodd" clip-rule="evenodd" d="M73.5245 14.9209H81.2284C85.3101 14.9209 87.9592 17.2456 87.9592 21.4354C87.9592 24.0844 86.8779 25.9766 85.0398 27.0038C85.3101 27.3552 85.5534 27.7337 85.7696 28.1661L88.2025 32.7885C88.5809 33.5183 88.3917 34.113 87.4996 34.113H84.5803C83.1476 34.113 82.5259 33.7616 82.0934 32.8155L80.3634 29.1122C79.9039 28.1932 79.4444 27.7337 78.3361 27.7337H77.7144V32.9777C77.7144 33.8157 77.4441 34.113 76.5791 34.113H73.5245C72.6595 34.113 72.3622 33.8157 72.3622 32.9777V16.0562C72.3622 15.2182 72.6595 14.9209 73.5245 14.9209ZM80.6337 23.2194C81.769 23.2194 82.4178 22.5166 82.4178 21.4084C82.4178 20.3271 81.7961 19.6513 80.6337 19.6513H77.7144V23.2194H80.6337Z" fill="#135CE9"/>
<path d="M94.288 14.9209C95.153 14.9209 95.4504 15.2182 95.4504 16.0562V27.3012C95.4504 28.896 96.3694 29.788 98.2346 29.788C100.1 29.788 101.046 28.896 101.046 27.3012V16.0562C101.046 15.2182 101.316 14.9209 102.181 14.9209H105.236C106.101 14.9209 106.398 15.2182 106.398 16.0562V27.0579C106.398 31.5991 103.587 34.5185 98.2346 34.5185C92.9095 34.5185 90.0982 31.5991 90.0982 27.0579V16.0562C90.0982 15.2182 90.3685 14.9209 91.2335 14.9209H94.288Z" fill="#135CE9"/>
<path d="M115.882 26.8052C112.724 26.3736 108.355 25.7765 108.355 20.5704C108.355 17.0023 111.22 14.5154 116.383 14.5154C120.383 14.5154 122.654 15.7048 123.925 18.2998C124.303 19.0837 124.087 19.4892 123.276 19.8135L120.573 20.9759C119.843 21.3002 119.545 21.1921 119.113 20.4082C118.599 19.381 117.626 19.0026 116.383 19.0026C114.545 19.0026 113.815 19.4621 113.815 20.4082C113.815 21.5706 115.41 21.8138 117.356 22.0571C120.492 22.4896 124.546 23.2465 124.546 28.3554C124.546 32.3289 120.951 34.5185 116.167 34.5185C112.139 34.5185 109.328 33.1399 108.301 30.3286C108.003 29.5177 108.246 29.1393 109.03 28.8419L111.571 27.9229C112.382 27.6526 112.761 27.7336 113.166 28.5176C113.653 29.4636 114.707 29.9502 116.221 29.9502C118.032 29.9502 119.113 29.5718 119.113 28.4094C119.113 27.3552 117.734 27.0579 115.95 26.8146L115.882 26.8052Z" fill="#135CE9"/>
<path d="M126.559 14.9209H139.939C140.804 14.9209 141.102 15.2182 141.102 16.0562V18.489C141.102 19.354 140.804 19.6513 139.939 19.6513H135.939V32.9777C135.939 33.8157 135.641 34.113 134.776 34.113H131.722C130.857 34.113 130.587 33.8157 130.587 32.9777V19.6513H126.559C125.694 19.6513 125.424 19.354 125.424 18.489V16.0562C125.424 15.2182 125.694 14.9209 126.559 14.9209Z" fill="#135CE9"/>
<path d="M6.14498 14.6265V25.8715C6.14498 27.4663 7.06404 28.3583 8.92919 28.3583C10.7943 28.3583 11.7404 27.4663 11.7404 25.8715V6.68025C11.7404 5.84229 12.0107 5.54494 12.8757 5.54494H15.9303C16.7953 5.54494 17.0926 5.84229 17.0926 6.68025V25.6282C17.0926 30.1694 14.2814 33.0888 8.92919 33.0888C3.60406 33.0888 0.792816 30.1694 0.792816 25.6282V14.6265C0.792816 13.7886 1.06313 13.4912 1.92812 13.4912H4.98264C5.84764 13.4912 6.14498 13.7886 6.14498 14.6265Z" fill="#FF0000"/>
<path d="M14.1233 0.790988C14.2701 0.655618 14.4962 0.655618 14.6429 0.790988L19.789 5.53738C20.0455 5.77395 19.8781 6.20231 19.5292 6.20231H9.23706C8.88812 6.20231 8.72074 5.77395 8.97723 5.53738L14.1233 0.790988Z" fill="#FF0000"/>
<path d="M59.3092 40.6384C59.5091 40.5576 59.6842 40.4745 59.8347 40.3892C59.9851 40.3038 60.1108 40.2196 60.2119 40.1366C60.3129 40.0512 60.3893 39.9693 60.4409 39.8907C60.4926 39.8121 60.5184 39.7402 60.5184 39.6751C60.5184 39.6527 60.5072 39.6268 60.4847 39.5976C60.4623 39.5684 60.4275 39.5415 60.3803 39.5168C60.3354 39.4921 60.2781 39.4719 60.2085 39.4562C60.1389 39.4382 60.0581 39.4292 59.966 39.4292C59.719 39.4292 59.49 39.4595 59.2789 39.5202C59.0678 39.5786 58.8758 39.6504 58.7029 39.7357C58.53 39.8211 58.3773 39.9109 58.2448 40.0052C58.1124 40.0973 58.0012 40.1781 57.9114 40.2477C57.8552 40.2904 57.8058 40.333 57.7632 40.3757C57.7228 40.4161 57.6823 40.4532 57.6419 40.4869C57.6038 40.5183 57.5622 40.5441 57.5173 40.5643C57.4724 40.5845 57.4185 40.5946 57.3556 40.5946C57.2613 40.5946 57.1872 40.5722 57.1333 40.5273C57.0817 40.4824 57.0559 40.4195 57.0559 40.3387C57.0559 40.2421 57.094 40.1399 57.1704 40.0321C57.2467 39.9221 57.3523 39.8132 57.487 39.7054C57.6217 39.5976 57.78 39.4955 57.9619 39.3989C58.1438 39.3001 58.3392 39.2137 58.548 39.1396C58.7591 39.0655 58.978 39.006 59.2048 38.961C59.4338 38.9161 59.6629 38.8937 59.8919 38.8937C60.1277 38.8937 60.3309 38.9128 60.5016 38.9509C60.6722 38.9891 60.8114 39.0419 60.9192 39.1092C61.0293 39.1766 61.1101 39.2563 61.1617 39.3484C61.2156 39.4405 61.2426 39.5404 61.2426 39.6482C61.2426 39.7559 61.2066 39.8682 61.1348 39.985C61.0629 40.1018 60.9596 40.2185 60.8249 40.3353C60.6924 40.452 60.5296 40.5643 60.3365 40.6721C60.1457 40.7776 59.9301 40.8742 59.6898 40.9618C59.9278 41.0404 60.121 41.1235 60.2692 41.211C60.4196 41.2964 60.5364 41.3862 60.6195 41.4805C60.7048 41.5725 60.762 41.6691 60.7912 41.7702C60.8204 41.869 60.835 41.9711 60.835 42.0767C60.835 42.2316 60.7924 42.3843 60.707 42.5347C60.6217 42.6852 60.5027 42.8278 60.35 42.9625C60.1995 43.095 60.0199 43.2185 59.8111 43.333C59.6045 43.4453 59.3788 43.543 59.1341 43.6261C58.8893 43.7069 58.6311 43.7698 58.3594 43.8147C58.0877 43.8618 57.8126 43.8854 57.5341 43.8854C57.4353 43.8854 57.3354 43.8798 57.2344 43.8686C57.1333 43.8573 57.0401 43.8371 56.9548 43.8079C56.8717 43.7787 56.8032 43.7394 56.7493 43.69C56.6977 43.6406 56.6719 43.5767 56.6719 43.4981C56.6719 43.4891 56.6719 43.4812 56.6719 43.4745C56.6741 43.4655 56.6764 43.4554 56.6786 43.4442C56.6876 43.4262 56.6977 43.4049 56.7089 43.3802C56.7202 43.3532 56.746 43.3274 56.7864 43.3027C56.8268 43.278 56.8897 43.2578 56.975 43.2421C57.0626 43.2241 57.1872 43.2151 57.3489 43.2151C57.6296 42.7009 57.8609 42.2585 58.0427 41.888C58.2269 41.5153 58.3807 41.2088 58.5042 40.9685C58.6277 40.7282 58.731 40.5508 58.8141 40.4363C58.8994 40.3218 58.9825 40.2645 59.0633 40.2645C59.0993 40.2645 59.1341 40.2702 59.1677 40.2814C59.2014 40.2926 59.2306 40.3083 59.2553 40.3285C59.2823 40.3465 59.3036 40.3701 59.3193 40.3993C59.335 40.4262 59.3429 40.4565 59.3429 40.4902C59.3249 40.5127 59.3148 40.5363 59.3126 40.561C59.3103 40.5834 59.3092 40.6092 59.3092 40.6384ZM59.124 41.2818C59.0229 41.5108 58.9275 41.7163 58.8377 41.8981C58.7501 42.08 58.667 42.2473 58.5884 42.4C58.5098 42.5505 58.4346 42.6919 58.3627 42.8244C58.2931 42.9546 58.2246 43.0826 58.1573 43.2084C58.4177 43.1859 58.6603 43.141 58.8848 43.0737C59.1116 43.0041 59.3081 42.9187 59.4742 42.8177C59.6427 42.7166 59.774 42.6032 59.8683 42.4775C59.9649 42.3517 60.0132 42.2193 60.0132 42.08C60.0132 42.0172 59.9986 41.9509 59.9694 41.8813C59.9424 41.8117 59.8953 41.7421 59.8279 41.6725C59.7605 41.6029 59.6696 41.5344 59.5551 41.467C59.4406 41.3996 59.2969 41.3379 59.124 41.2818Z" fill="black"/>
<path d="M62.8159 41.8948C62.7104 41.8948 62.6082 41.9217 62.5094 41.9756C62.4129 42.0273 62.3264 42.0969 62.2501 42.1844C62.176 42.2698 62.1165 42.3675 62.0716 42.4775C62.0267 42.5853 62.0042 42.6964 62.0042 42.8109C62.0042 42.8536 62.0076 42.9008 62.0143 42.9524C62.021 43.0018 62.0345 43.049 62.0547 43.0939C62.0772 43.1365 62.1086 43.1725 62.149 43.2017C62.1895 43.2308 62.2433 43.2454 62.3107 43.2454C62.414 43.2454 62.5139 43.2185 62.6105 43.1646C62.7093 43.1085 62.7969 43.0366 62.8732 42.949C62.9496 42.8592 63.0102 42.7582 63.0551 42.6459C63.1 42.5336 63.1225 42.4202 63.1225 42.3057C63.1225 42.2608 63.1191 42.2148 63.1124 42.1676C63.1079 42.1182 63.0944 42.0733 63.0719 42.0329C63.0517 41.9925 63.0214 41.9599 62.981 41.9352C62.9406 41.9082 62.8856 41.8948 62.8159 41.8948ZM62.9911 41.302C63.0764 41.302 63.1674 41.3132 63.2639 41.3356C63.3627 41.3581 63.4537 41.3963 63.5367 41.4502C63.6198 41.5041 63.6883 41.5759 63.7422 41.6657C63.7983 41.7533 63.8264 41.8622 63.8264 41.9925C63.8264 42.0598 63.8174 42.1373 63.7995 42.2249C63.7815 42.3102 63.7546 42.4 63.7186 42.4943C63.7411 42.5213 63.7669 42.5404 63.7961 42.5516C63.8253 42.5628 63.8567 42.5684 63.8904 42.5684C63.9376 42.5684 63.9892 42.555 64.0454 42.528C64.1037 42.5011 64.1632 42.4663 64.2239 42.4236C64.2845 42.3809 64.3451 42.3326 64.4058 42.2788C64.4664 42.2249 64.5236 42.171 64.5775 42.1171C64.6314 42.0632 64.6797 42.0127 64.7224 41.9655C64.7673 41.9161 64.8043 41.8746 64.8335 41.8409C64.8492 41.8252 64.8683 41.8173 64.8908 41.8173C64.9222 41.8173 64.9503 41.8341 64.975 41.8678C64.9997 41.8993 65.012 41.9442 65.012 42.0026C65.012 42.0609 64.9941 42.1283 64.9581 42.2047C64.9245 42.281 64.8605 42.3607 64.7662 42.4438C64.7123 42.5022 64.6505 42.5695 64.5809 42.6459C64.5113 42.7222 64.4372 42.7941 64.3586 42.8615C64.28 42.9288 64.198 42.9861 64.1127 43.0332C64.0274 43.0804 63.9421 43.104 63.8567 43.104C63.7983 43.104 63.7411 43.095 63.685 43.077C63.6311 43.0591 63.576 43.0299 63.5199 42.9895C63.4391 43.1152 63.347 43.2297 63.2437 43.333C63.1404 43.4363 63.0248 43.525 62.8968 43.5991C62.771 43.6732 62.6341 43.7305 62.4859 43.7709C62.3399 43.8135 62.1838 43.8349 62.0177 43.8349C61.9548 43.8349 61.8818 43.8225 61.7987 43.7978C61.7157 43.7731 61.6359 43.7327 61.5596 43.6766C61.4855 43.6182 61.4226 43.543 61.371 43.4509C61.3193 43.3588 61.2935 43.2466 61.2935 43.1141C61.2935 43.0243 61.3081 42.9165 61.3373 42.7907C61.3665 42.665 61.4103 42.5359 61.4687 42.4034C61.5293 42.2687 61.6045 42.1362 61.6943 42.0059C61.7864 41.8734 61.8953 41.7556 62.021 41.6523C62.1468 41.5467 62.2905 41.4625 62.4522 41.3996C62.6139 41.3345 62.7935 41.302 62.9911 41.302Z" fill="black"/>
<path d="M66.1206 41.8948C66.0151 41.8948 65.9129 41.9217 65.8141 41.9756C65.7175 42.0273 65.6311 42.0969 65.5547 42.1844C65.4806 42.2698 65.4211 42.3675 65.3762 42.4775C65.3313 42.5853 65.3088 42.6964 65.3088 42.8109C65.3088 42.8536 65.3122 42.9008 65.319 42.9524C65.3257 43.0018 65.3392 43.049 65.3594 43.0939C65.3818 43.1365 65.4133 43.1725 65.4537 43.2017C65.4941 43.2308 65.548 43.2454 65.6154 43.2454C65.7186 43.2454 65.8186 43.2185 65.9151 43.1646C66.0139 43.1085 66.1015 43.0366 66.1779 42.949C66.2542 42.8592 66.3148 42.7582 66.3597 42.6459C66.4046 42.5336 66.4271 42.4202 66.4271 42.3057C66.4271 42.2608 66.4237 42.2148 66.417 42.1676C66.4125 42.1182 66.399 42.0733 66.3766 42.0329C66.3564 41.9925 66.3261 41.9599 66.2856 41.9352C66.2452 41.9082 66.1902 41.8948 66.1206 41.8948ZM66.2957 41.302C66.3811 41.302 66.472 41.3132 66.5686 41.3356C66.6674 41.3581 66.7583 41.3963 66.8414 41.4502C66.9245 41.5041 66.993 41.5759 67.0469 41.6657C67.103 41.7533 67.1311 41.8622 67.1311 41.9925C67.1311 42.0598 67.1221 42.1373 67.1041 42.2249C67.0862 42.3102 67.0592 42.4 67.0233 42.4943C67.0457 42.5213 67.0716 42.5404 67.1007 42.5516C67.1299 42.5628 67.1614 42.5684 67.1951 42.5684C67.2422 42.5684 67.2939 42.555 67.35 42.528C67.4084 42.5011 67.4679 42.4663 67.5285 42.4236C67.5891 42.3809 67.6498 42.3326 67.7104 42.2788C67.771 42.2249 67.8283 42.171 67.8822 42.1171C67.9361 42.0632 67.9844 42.0127 68.027 41.9655C68.0719 41.9161 68.109 41.8746 68.1382 41.8409C68.1539 41.8252 68.173 41.8173 68.1954 41.8173C68.2269 41.8173 68.2549 41.8341 68.2796 41.8678C68.3043 41.8993 68.3167 41.9442 68.3167 42.0026C68.3167 42.0609 68.2987 42.1283 68.2628 42.2047C68.2291 42.281 68.1651 42.3607 68.0708 42.4438C68.0169 42.5022 67.9552 42.5695 67.8855 42.6459C67.8159 42.7222 67.7418 42.7941 67.6632 42.8615C67.5847 42.9288 67.5027 42.9861 67.4174 43.0332C67.332 43.0804 67.2467 43.104 67.1614 43.104C67.103 43.104 67.0457 43.095 66.9896 43.077C66.9357 43.0591 66.8807 43.0299 66.8246 42.9895C66.7437 43.1152 66.6517 43.2297 66.5484 43.333C66.4451 43.4363 66.3294 43.525 66.2014 43.5991C66.0757 43.6732 65.9387 43.7305 65.7905 43.7709C65.6445 43.8135 65.4885 43.8349 65.3223 43.8349C65.2594 43.8349 65.1865 43.8225 65.1034 43.7978C65.0203 43.7731 64.9406 43.7327 64.8642 43.6766C64.7901 43.6182 64.7273 43.543 64.6756 43.4509C64.624 43.3588 64.5981 43.2466 64.5981 43.1141C64.5981 43.0243 64.6127 42.9165 64.6419 42.7907C64.6711 42.665 64.7149 42.5359 64.7733 42.4034C64.8339 42.2687 64.9091 42.1362 64.999 42.0059C65.091 41.8734 65.1999 41.7556 65.3257 41.6523C65.4514 41.5467 65.5951 41.4625 65.7568 41.3996C65.9185 41.3345 66.0981 41.302 66.2957 41.302Z" fill="black"/>
<path d="M69.1019 41.8544C69.2389 41.9262 69.3612 42.0082 69.469 42.1002C69.5768 42.1923 69.6678 42.29 69.7419 42.3933C69.8182 42.4943 69.8755 42.5976 69.9136 42.7032C69.9541 42.8087 69.9743 42.912 69.9743 43.013C69.9743 43.141 69.9372 43.2567 69.8631 43.36C69.7913 43.461 69.6958 43.5475 69.5768 43.6193C69.46 43.6889 69.3253 43.7417 69.1726 43.7776C69.0222 43.8158 68.8695 43.8349 68.7145 43.8349C68.5978 43.8349 68.4844 43.8214 68.3743 43.7945C68.2643 43.7698 68.1633 43.7305 68.0712 43.6766C67.9814 43.6227 67.9039 43.5542 67.8388 43.4711C67.7737 43.3858 67.7276 43.2847 67.7007 43.168C67.6962 43.15 67.694 43.1354 67.694 43.1242C67.694 43.0636 67.7153 43.0119 67.758 42.9692C67.8006 42.9243 67.8478 42.9019 67.8994 42.9019C67.9241 42.9019 67.9511 42.9064 67.9803 42.9154C68.0117 42.9243 68.0353 42.9445 68.051 42.976C68.0802 43.0299 68.1206 43.0782 68.1723 43.1208C68.2261 43.1635 68.2857 43.2005 68.3508 43.232C68.4159 43.2612 68.4844 43.2847 68.5562 43.3027C68.6303 43.3184 68.7022 43.3263 68.7718 43.3263C68.8437 43.3263 68.9121 43.3195 68.9773 43.3061C69.0446 43.2926 69.103 43.2713 69.1524 43.2421C69.2041 43.2129 69.2445 43.1758 69.2737 43.1309C69.3029 43.086 69.3175 43.031 69.3175 42.9659C69.3175 42.8514 69.2916 42.7458 69.24 42.6493C69.1883 42.5527 69.121 42.464 69.0379 42.3832C68.9571 42.3001 68.8639 42.2237 68.7583 42.1541C68.655 42.0823 68.5517 42.0138 68.4484 41.9487C68.4372 41.9419 68.4204 41.9228 68.3979 41.8914C68.3755 41.8577 68.3642 41.824 68.3642 41.7904C68.3642 41.7634 68.371 41.7421 68.3845 41.7264C68.4204 41.6792 68.4619 41.6309 68.5091 41.5815C68.5562 41.5321 68.6068 41.4872 68.6606 41.4468C68.7145 41.4041 68.7729 41.3705 68.8358 41.3458C68.8987 41.3188 68.9638 41.3053 69.0312 41.3053C69.0806 41.3053 69.1266 41.3121 69.1693 41.3255C69.2119 41.339 69.2478 41.357 69.277 41.3794C69.3062 41.3996 69.3287 41.4232 69.3444 41.4502C69.3624 41.4749 69.3713 41.4984 69.3713 41.5209C69.3713 41.5523 69.3635 41.5827 69.3478 41.6118C69.3321 41.641 69.3107 41.6691 69.2838 41.6961C69.2591 41.723 69.2299 41.7499 69.1962 41.7769C69.1648 41.8038 69.1333 41.8297 69.1019 41.8544Z" fill="black"/>
<path d="M71.6487 41.8779C71.5656 42.0396 71.487 42.1979 71.4129 42.3529C71.3388 42.5056 71.2692 42.647 71.2041 42.7773C71.1771 42.8311 71.1502 42.894 71.1232 42.9659C71.0985 43.0355 71.0862 43.0972 71.0862 43.1511C71.0862 43.1826 71.0929 43.2073 71.1064 43.2252C71.1221 43.2432 71.1468 43.2522 71.1805 43.2522C71.2277 43.2522 71.2872 43.2387 71.359 43.2118C71.4309 43.1826 71.5083 43.1455 71.5914 43.1006C71.6745 43.0535 71.7621 43.0007 71.8541 42.9423C71.9462 42.8817 72.036 42.8199 72.1236 42.757C72.2134 42.6919 72.2987 42.6279 72.3796 42.5651C72.4604 42.4999 72.5323 42.4404 72.5952 42.3865C72.6311 42.3618 72.6648 42.3495 72.6962 42.3495C72.7344 42.3495 72.7658 42.3663 72.7905 42.4C72.8152 42.4337 72.8276 42.4764 72.8276 42.528C72.8276 42.5797 72.8152 42.6324 72.7905 42.6863C72.7658 42.7402 72.7209 42.793 72.6558 42.8446C72.5098 42.9771 72.3616 43.1029 72.2112 43.2219C72.063 43.3409 71.9148 43.4464 71.7666 43.5385C71.6206 43.6283 71.4758 43.7002 71.3321 43.754C71.1884 43.8079 71.0491 43.8349 70.9144 43.8349C70.8246 43.8349 70.7494 43.8225 70.6887 43.7978C70.6281 43.7754 70.5787 43.7439 70.5405 43.7035C70.5046 43.6609 70.4788 43.6126 70.4631 43.5587C70.4473 43.5025 70.4395 43.443 70.4395 43.3802C70.4395 43.2679 70.4586 43.1511 70.4967 43.0299C70.5349 42.9086 70.5776 42.7997 70.6247 42.7032C70.6921 42.5639 70.7583 42.4258 70.8235 42.2889C70.8908 42.1519 70.9559 42.0205 71.0188 41.8948H70.874C70.7482 41.8948 70.6618 41.8746 70.6146 41.8341C70.5675 41.7937 70.5439 41.7477 70.5439 41.6961C70.5439 41.6736 70.5506 41.6467 70.5641 41.6152C70.5798 41.5815 70.6012 41.5512 70.6281 41.5243C70.6573 41.4951 70.6921 41.4704 70.7325 41.4502C70.7729 41.43 70.819 41.4199 70.8706 41.4199H71.2344L71.9451 40.0086C71.99 39.9232 72.045 39.8626 72.1101 39.8267C72.1775 39.7885 72.2471 39.7694 72.319 39.7694C72.3863 39.7694 72.4481 39.7874 72.5042 39.8233C72.5603 39.8592 72.5884 39.9187 72.5884 40.0018C72.5884 40.0445 72.5783 40.0883 72.5581 40.1332C72.5401 40.1759 72.5154 40.2264 72.484 40.2848C72.4638 40.3229 72.4391 40.369 72.4099 40.4229C72.3807 40.4745 72.3493 40.5306 72.3156 40.5913C72.2842 40.6497 72.2505 40.7114 72.2145 40.7765C72.1809 40.8416 72.1472 40.9045 72.1135 40.9651C72.0372 41.1089 71.9563 41.2604 71.871 41.4199H72.969C73.0229 41.4199 73.0723 41.4232 73.1172 41.43C73.1621 41.4345 73.2003 41.4457 73.2318 41.4636C73.2654 41.4794 73.2913 41.5018 73.3092 41.531C73.3272 41.5602 73.3362 41.5995 73.3362 41.6489C73.3362 41.6736 73.3317 41.6983 73.3227 41.723C73.316 41.7477 73.3014 41.7702 73.2789 41.7904C73.2587 41.8106 73.2295 41.8274 73.1913 41.8409C73.1554 41.8544 73.1082 41.8633 73.0499 41.8678L71.6487 41.8779Z" fill="black"/>
<path d="M73.6835 40.8372C73.6835 40.7855 73.6925 40.7327 73.7104 40.6788C73.7307 40.6227 73.7598 40.5722 73.798 40.5273C73.8362 40.4824 73.8833 40.4453 73.9395 40.4161C73.9979 40.3869 74.0664 40.3723 74.1449 40.3723C74.2752 40.3723 74.3661 40.3982 74.4178 40.4498C74.4694 40.4992 74.4952 40.5621 74.4952 40.6384C74.4952 40.6811 74.4863 40.7282 74.4683 40.7799C74.4526 40.8315 74.4279 40.8798 74.3942 40.9247C74.3605 40.9674 74.3167 41.0033 74.2628 41.0325C74.2089 41.0617 74.1449 41.0763 74.0708 41.0763C73.9316 41.0763 73.8339 41.055 73.7778 41.0123C73.7217 40.9674 73.6902 40.909 73.6835 40.8372ZM73.313 41.595C73.3512 41.5321 73.395 41.4872 73.4444 41.4603C73.4938 41.4333 73.5443 41.4199 73.5959 41.4199C73.6813 41.4199 73.7542 41.4479 73.8149 41.5041C73.8777 41.558 73.9092 41.6276 73.9092 41.7129C73.9069 41.7331 73.9036 41.7533 73.8991 41.7735C73.8968 41.7937 73.8901 41.8139 73.8789 41.8341C73.8474 41.8925 73.8216 41.9419 73.8014 41.9824C73.7812 42.0228 73.7621 42.0609 73.7441 42.0969C73.7284 42.1306 73.7127 42.1642 73.697 42.1979C73.6813 42.2316 73.6622 42.272 73.6397 42.3192C73.6128 42.3753 73.5825 42.4371 73.5488 42.5044C73.5151 42.5695 73.4825 42.6369 73.4511 42.7065C73.4219 42.7761 73.3961 42.8446 73.3736 42.912C73.3534 42.9793 73.3433 43.0411 73.3433 43.0972C73.3433 43.1579 73.3579 43.1983 73.3871 43.2185C73.4185 43.2365 73.4623 43.2454 73.5185 43.2454C73.5813 43.2454 73.6464 43.232 73.7138 43.205C73.7834 43.1781 73.853 43.1433 73.9226 43.1006C73.9923 43.0579 74.0607 43.0097 74.1281 42.9558C74.1955 42.8996 74.2583 42.8435 74.3167 42.7874C74.3774 42.7312 74.4324 42.6773 74.4818 42.6257C74.5334 42.574 74.5761 42.528 74.6098 42.4876C74.6547 42.4449 74.6996 42.4236 74.7445 42.4236C74.7849 42.4236 74.8175 42.4416 74.8422 42.4775C74.8691 42.5134 74.8826 42.5594 74.8826 42.6156C74.8826 42.6672 74.8691 42.7222 74.8422 42.7806C74.8175 42.839 74.7759 42.894 74.7175 42.9457C74.603 43.0624 74.4863 43.1747 74.3673 43.2825C74.2482 43.388 74.1259 43.4823 74.0001 43.5654C73.8766 43.6463 73.752 43.7114 73.6262 43.7608C73.5005 43.8102 73.3736 43.8349 73.2456 43.8349C73.0637 43.8349 72.92 43.7888 72.8145 43.6968C72.7112 43.6025 72.6596 43.4565 72.6596 43.2589C72.6596 43.1556 72.6742 43.0546 72.7033 42.9558C72.7325 42.857 72.7673 42.7615 72.8078 42.6695C72.8482 42.5752 72.8908 42.4853 72.9358 42.4C72.9807 42.3124 73.0188 42.2294 73.0503 42.1508C73.0615 42.1216 73.0806 42.0767 73.1075 42.016C73.1367 41.9554 73.167 41.8937 73.1985 41.8308C73.2344 41.7567 73.2726 41.6781 73.313 41.595Z" fill="black"/>
<path d="M75.4758 41.7062C75.5207 41.6096 75.5769 41.5377 75.6442 41.4906C75.7116 41.4434 75.7778 41.4199 75.8429 41.4199C75.8968 41.4199 75.9451 41.4401 75.9878 41.4805C76.0304 41.5187 76.0518 41.5759 76.0518 41.6523C76.0518 41.6815 76.0484 41.7129 76.0417 41.7466C76.0349 41.7803 76.0226 41.8162 76.0046 41.8544C76.054 41.7915 76.1248 41.7275 76.2168 41.6624C76.3089 41.595 76.4099 41.5355 76.52 41.4839C76.6322 41.43 76.7468 41.3862 76.8635 41.3525C76.9825 41.3188 77.0948 41.302 77.2003 41.302C77.3194 41.302 77.4182 41.3312 77.4967 41.3895C77.5776 41.4457 77.618 41.5422 77.618 41.6792C77.618 41.76 77.6057 41.8443 77.581 41.9318C77.5563 42.0194 77.5237 42.107 77.4833 42.1946C77.4451 42.2821 77.4013 42.3686 77.3519 42.4539C77.3048 42.537 77.2576 42.6156 77.2104 42.6897C77.1633 42.7638 77.1195 42.8323 77.0791 42.8951C77.0409 42.9558 77.0106 43.0063 76.9881 43.0467C76.959 43.0826 76.9444 43.1242 76.9444 43.1713C76.9444 43.1893 76.95 43.205 76.9612 43.2185C76.9724 43.232 76.9904 43.2387 77.0151 43.2387C77.0308 43.2387 77.0488 43.2376 77.069 43.2353C77.0892 43.2308 77.1139 43.2185 77.1431 43.1983C77.2643 43.1534 77.3878 43.0972 77.5136 43.0299C77.6416 42.9625 77.764 42.8918 77.8807 42.8177C77.9975 42.7413 78.1042 42.6661 78.2007 42.592C78.2995 42.5157 78.3815 42.4472 78.4466 42.3865C78.4646 42.3708 78.4825 42.3596 78.5005 42.3529C78.5184 42.3461 78.5353 42.3428 78.551 42.3428C78.5892 42.3428 78.6184 42.3573 78.6386 42.3865C78.661 42.4157 78.6723 42.4528 78.6723 42.4977C78.6723 42.5673 78.6498 42.6448 78.6049 42.7301C78.5622 42.8154 78.4937 42.8951 78.3994 42.9692C78.2714 43.0613 78.1536 43.1455 78.0458 43.2219C77.9402 43.2982 77.8313 43.3701 77.7191 43.4374C77.609 43.5025 77.49 43.5643 77.362 43.6227C77.2363 43.6788 77.0881 43.7316 76.9174 43.781C76.859 43.799 76.8051 43.8124 76.7557 43.8214C76.7086 43.8304 76.6648 43.8349 76.6244 43.8349C76.5054 43.8349 76.4178 43.8023 76.3617 43.7372C76.3078 43.6698 76.2808 43.5767 76.2808 43.4576C76.2808 43.4419 76.2808 43.4273 76.2808 43.4139C76.2831 43.3981 76.2853 43.3813 76.2876 43.3633C76.292 43.2937 76.31 43.2174 76.3414 43.1343C76.3751 43.0512 76.4144 42.9659 76.4593 42.8783C76.5065 42.7907 76.5559 42.7043 76.6075 42.6189C76.6592 42.5314 76.7063 42.4494 76.749 42.3731C76.7939 42.2945 76.831 42.2249 76.8602 42.1642C76.8893 42.1036 76.9039 42.0542 76.9039 42.016C76.9039 41.9824 76.8938 41.9543 76.8736 41.9318C76.8557 41.9071 76.8276 41.8948 76.7894 41.8948C76.6457 41.8948 76.5087 41.9374 76.3785 42.0228C76.2505 42.1081 76.1304 42.2136 76.0181 42.3394C75.9058 42.4629 75.8025 42.5942 75.7082 42.7335C75.6139 42.8727 75.5308 42.9973 75.459 43.1073C75.4141 43.1814 75.3725 43.2612 75.3343 43.3465C75.2984 43.4296 75.2602 43.5082 75.2198 43.5823C75.1794 43.6541 75.1334 43.7136 75.0817 43.7608C75.0323 43.8102 74.9694 43.8349 74.8931 43.8349C74.8145 43.8349 74.7528 43.8102 74.7078 43.7608C74.6629 43.7114 74.6405 43.6508 74.6405 43.5789C74.6405 43.5407 74.6562 43.479 74.6876 43.3936C74.7191 43.3083 74.7595 43.2095 74.8089 43.0972C74.8583 42.985 74.9133 42.8648 74.9739 42.7368C75.0368 42.6066 75.0986 42.4786 75.1592 42.3529C75.2221 42.2249 75.2816 42.1047 75.3377 41.9925C75.3938 41.8802 75.4399 41.7847 75.4758 41.7062Z" fill="black"/>
<path d="M80.1547 41.302C80.2535 41.302 80.3399 41.3143 80.414 41.339C80.4881 41.3637 80.551 41.3907 80.6027 41.4199C80.6611 41.4558 80.7127 41.4951 80.7576 41.5377C80.789 41.5175 80.8227 41.4984 80.8587 41.4805C80.8901 41.4648 80.9249 41.4513 80.9631 41.4401C81.0012 41.4266 81.0394 41.4199 81.0776 41.4199C81.1764 41.4199 81.2527 41.4401 81.3066 41.4805C81.3605 41.5209 81.3875 41.5692 81.3875 41.6253C81.3875 41.6545 81.3796 41.6837 81.3639 41.7129L80.5757 43.205L80.6397 43.1478C80.9047 42.9928 81.1225 42.8716 81.2932 42.784C81.4638 42.6942 81.5997 42.6279 81.7007 42.5853C81.8018 42.5426 81.8736 42.5168 81.9163 42.5078C81.9612 42.4966 81.9893 42.491 82.0005 42.491C82.0521 42.491 82.0914 42.5112 82.1184 42.5516C82.1476 42.5898 82.1622 42.638 82.1622 42.6964C82.1622 42.7615 82.1431 42.8278 82.1049 42.8951C82.069 42.9625 82.0128 43.0108 81.9365 43.04C81.8354 43.0916 81.7176 43.1478 81.5828 43.2084C81.4481 43.2668 81.3078 43.3319 81.1618 43.4037C81.0158 43.4756 80.8688 43.5564 80.7206 43.6463C80.5746 43.7338 80.4376 43.8315 80.3096 43.9393L79.6562 45.1215C79.6023 45.2495 79.5529 45.354 79.508 45.4348C79.4653 45.5156 79.4227 45.5796 79.38 45.6268C79.3373 45.6739 79.2935 45.7065 79.2486 45.7245C79.2037 45.7424 79.1521 45.7514 79.0937 45.7514C79.0061 45.7514 78.9365 45.7211 78.8849 45.6605C78.8355 45.5998 78.8108 45.5269 78.8108 45.4415C78.8108 45.3517 78.8321 45.2473 78.8748 45.1283C78.9174 45.0093 78.9769 44.8802 79.0533 44.7409C79.1319 44.604 79.2262 44.4591 79.3362 44.3064C79.4462 44.156 79.5686 44.0022 79.7034 43.845L80.121 43.3128C80.0357 43.3914 79.9515 43.4588 79.8684 43.5149C79.7853 43.571 79.7056 43.6171 79.6292 43.653C79.5529 43.6867 79.481 43.7114 79.4137 43.7271C79.3486 43.7428 79.2913 43.7507 79.2419 43.7507C79.1521 43.7507 79.069 43.7305 78.9927 43.69C78.9163 43.6474 78.8501 43.589 78.7939 43.5149C78.74 43.4408 78.6974 43.3532 78.6659 43.2522C78.6345 43.1511 78.6188 43.0411 78.6188 42.9221C78.6188 42.6751 78.6659 42.4517 78.7602 42.2518C78.8568 42.052 78.9792 41.8824 79.1274 41.7432C79.2778 41.6017 79.4429 41.4928 79.6225 41.4165C79.8044 41.3401 79.9818 41.302 80.1547 41.302ZM80.0267 41.8948C79.9212 41.8948 79.819 41.9217 79.7202 41.9756C79.6214 42.0273 79.5338 42.0969 79.4575 42.1844C79.3811 42.2698 79.3205 42.3686 79.2756 42.4809C79.2307 42.5931 79.2082 42.7088 79.2082 42.8278C79.2082 42.8637 79.2105 42.903 79.215 42.9457C79.2217 42.9861 79.234 43.0243 79.252 43.0602C79.2722 43.0961 79.3003 43.1264 79.3362 43.1511C79.3744 43.1736 79.426 43.1848 79.4912 43.1848C79.5383 43.1848 79.5933 43.1646 79.6562 43.1242C79.7213 43.0815 79.7876 43.0288 79.8549 42.9659C79.9245 42.9008 79.9919 42.83 80.057 42.7537C80.1221 42.6751 80.1805 42.5987 80.2322 42.5246C80.2861 42.4505 80.3287 42.3843 80.3602 42.3259C80.3916 42.2653 80.4073 42.2204 80.4073 42.1912C80.4073 42.1418 80.3938 42.0991 80.3669 42.0632C80.3399 42.025 80.3063 41.9936 80.2658 41.9689C80.2277 41.9442 80.1861 41.9262 80.1412 41.915C80.0986 41.9015 80.0604 41.8948 80.0267 41.8948Z" fill="black"/>
<path d="M85.2887 41.8779C85.2056 42.0396 85.127 42.1979 85.0529 42.3529C84.9788 42.5056 84.9092 42.647 84.8441 42.7773C84.8171 42.8311 84.7902 42.894 84.7633 42.9659C84.7386 43.0355 84.7262 43.0972 84.7262 43.1511C84.7262 43.1826 84.7329 43.2073 84.7464 43.2252C84.7621 43.2432 84.7868 43.2522 84.8205 43.2522C84.8677 43.2522 84.9272 43.2387 84.999 43.2118C85.0709 43.1826 85.1484 43.1455 85.2314 43.1006C85.3145 43.0535 85.4021 43.0007 85.4942 42.9423C85.5862 42.8817 85.676 42.8199 85.7636 42.757C85.8534 42.6919 85.9388 42.6279 86.0196 42.5651C86.1004 42.4999 86.1723 42.4404 86.2352 42.3865C86.2711 42.3618 86.3048 42.3495 86.3362 42.3495C86.3744 42.3495 86.4058 42.3663 86.4305 42.4C86.4552 42.4337 86.4676 42.4764 86.4676 42.528C86.4676 42.5797 86.4552 42.6324 86.4305 42.6863C86.4058 42.7402 86.3609 42.793 86.2958 42.8446C86.1498 42.9771 86.0016 43.1029 85.8512 43.2219C85.703 43.3409 85.5548 43.4464 85.4066 43.5385C85.2606 43.6283 85.1158 43.7002 84.9721 43.754C84.8284 43.8079 84.6892 43.8349 84.5544 43.8349C84.4646 43.8349 84.3894 43.8225 84.3288 43.7978C84.2681 43.7754 84.2187 43.7439 84.1805 43.7035C84.1446 43.6609 84.1188 43.6126 84.1031 43.5587C84.0874 43.5025 84.0795 43.443 84.0795 43.3802C84.0795 43.2679 84.0986 43.1511 84.1368 43.0299C84.1749 42.9086 84.2176 42.7997 84.2648 42.7032C84.3321 42.5639 84.3984 42.4258 84.4635 42.2889C84.5308 42.1519 84.596 42.0205 84.6588 41.8948H84.514C84.3883 41.8948 84.3018 41.8746 84.2546 41.8341C84.2075 41.7937 84.1839 41.7477 84.1839 41.6961C84.1839 41.6736 84.1907 41.6467 84.2041 41.6152C84.2198 41.5815 84.2412 41.5512 84.2681 41.5243C84.2973 41.4951 84.3321 41.4704 84.3725 41.4502C84.413 41.43 84.459 41.4199 84.5106 41.4199H84.8744L85.5851 40.0086C85.63 39.9232 85.685 39.8626 85.7501 39.8267C85.8175 39.7885 85.8871 39.7694 85.959 39.7694C86.0263 39.7694 86.0881 39.7874 86.1442 39.8233C86.2004 39.8592 86.2284 39.9187 86.2284 40.0018C86.2284 40.0445 86.2183 40.0883 86.1981 40.1332C86.1802 40.1759 86.1555 40.2264 86.124 40.2848C86.1038 40.3229 86.0791 40.369 86.0499 40.4229C86.0207 40.4745 85.9893 40.5306 85.9556 40.5913C85.9242 40.6497 85.8905 40.7114 85.8546 40.7765C85.8209 40.8416 85.7872 40.9045 85.7535 40.9651C85.6772 41.1089 85.5963 41.2604 85.511 41.4199H86.609C86.6629 41.4199 86.7123 41.4232 86.7572 41.43C86.8022 41.4345 86.8403 41.4457 86.8718 41.4636C86.9055 41.4794 86.9313 41.5018 86.9492 41.531C86.9672 41.5602 86.9762 41.5995 86.9762 41.6489C86.9762 41.6736 86.9717 41.6983 86.9627 41.723C86.956 41.7477 86.9414 41.7702 86.9189 41.7904C86.8987 41.8106 86.8695 41.8274 86.8314 41.8409C86.7954 41.8544 86.7483 41.8633 86.6899 41.8678L85.2887 41.8779Z" fill="black"/>
<path d="M87.9029 41.7634C87.8916 41.7612 87.8815 41.76 87.8725 41.76C87.8636 41.76 87.8535 41.76 87.8422 41.76C87.7569 41.76 87.6772 41.7769 87.6031 41.8106C87.529 41.8443 87.4605 41.8892 87.3976 41.9453C87.337 41.9992 87.282 42.0609 87.2326 42.1306C87.1854 42.2002 87.1428 42.2698 87.1046 42.3394C87.0664 42.4067 87.0338 42.4719 87.0069 42.5347C86.9822 42.5976 86.9631 42.6504 86.9496 42.693C87.0282 42.6526 87.1091 42.6066 87.1922 42.555C87.2775 42.5033 87.3572 42.4539 87.4313 42.4067C87.5054 42.3596 87.5694 42.3169 87.6233 42.2788C87.6794 42.2406 87.7187 42.2148 87.7412 42.2013C87.8422 42.1384 87.9118 42.08 87.95 42.0261C87.9882 41.97 88.0073 41.9217 88.0073 41.8813C88.0073 41.8476 87.996 41.8207 87.9736 41.8005C87.9534 41.7803 87.9298 41.7679 87.9029 41.7634ZM88.0241 41.2986C88.2105 41.2986 88.3497 41.3435 88.4418 41.4333C88.5338 41.5231 88.5799 41.6478 88.5799 41.8072C88.5799 41.9015 88.5552 42.0003 88.5058 42.1036C88.4564 42.2069 88.371 42.3124 88.2498 42.4202C88.1285 42.5258 87.9657 42.6347 87.7614 42.7469C87.5593 42.857 87.3056 42.9681 87.0002 43.0804C87.0114 43.1455 87.0462 43.1972 87.1046 43.2353C87.163 43.2713 87.2404 43.2892 87.337 43.2892C87.4403 43.2892 87.5503 43.2746 87.6671 43.2454C87.7861 43.214 87.9029 43.1747 88.0174 43.1276C88.1341 43.0804 88.2475 43.0299 88.3576 42.976C88.4676 42.9198 88.5664 42.8671 88.654 42.8177C88.7438 42.7683 88.8179 42.7256 88.8763 42.6897C88.9369 42.6538 88.9773 42.6313 88.9975 42.6223C89.0177 42.6088 89.0357 42.601 89.0514 42.5987C89.0694 42.5965 89.0851 42.5954 89.0986 42.5954C89.1255 42.5954 89.148 42.6021 89.1659 42.6156C89.1839 42.6268 89.1985 42.6414 89.2097 42.6594C89.2232 42.6751 89.2322 42.693 89.2367 42.7133C89.2412 42.7312 89.2434 42.7469 89.2434 42.7604C89.2434 42.7806 89.2412 42.8053 89.2367 42.8345C89.2322 42.8615 89.2153 42.8929 89.1862 42.9288C89.1749 42.9401 89.1368 42.9704 89.0716 43.0198C89.0088 43.0692 88.9268 43.1276 88.8258 43.1949C88.7247 43.2623 88.6068 43.3341 88.4721 43.4105C88.3396 43.4846 88.1981 43.5531 88.0477 43.6159C87.8995 43.6788 87.7445 43.7305 87.5829 43.7709C87.4212 43.8135 87.2618 43.8349 87.1046 43.8349C86.9699 43.8349 86.8497 43.8091 86.7442 43.7574C86.6409 43.7058 86.5522 43.6362 86.4781 43.5486C86.4062 43.461 86.3512 43.36 86.313 43.2454C86.2749 43.1309 86.2558 43.0108 86.2558 42.885C86.2558 42.7885 86.2749 42.6829 86.313 42.5684C86.3512 42.4517 86.4062 42.3349 86.4781 42.2181C86.5499 42.1014 86.6375 41.988 86.7408 41.8779C86.8463 41.7657 86.9642 41.6669 87.0945 41.5815C87.2247 41.4962 87.3673 41.4277 87.5222 41.3761C87.6794 41.3244 87.8467 41.2986 88.0241 41.2986Z" fill="black"/>
<path d="M91.2311 41.6118C91.2311 41.6815 91.2232 41.7589 91.2075 41.8443C91.1918 41.9273 91.166 42.0059 91.13 42.08C91.0941 42.1541 91.0481 42.2159 90.9919 42.2653C90.9358 42.3147 90.8662 42.3394 90.7831 42.3394C90.7382 42.3394 90.709 42.3326 90.6955 42.3192C90.6843 42.3057 90.6787 42.2821 90.6787 42.2484C90.6787 42.2282 90.6787 42.199 90.6787 42.1609C90.6809 42.1204 90.6821 42.0823 90.6821 42.0463C90.6821 42.0059 90.6764 41.9722 90.6652 41.9453C90.654 41.9161 90.6259 41.9015 90.581 41.9015C90.5294 41.9015 90.471 41.9217 90.4059 41.9621C90.343 42.0003 90.279 42.0508 90.2139 42.1137C90.151 42.1766 90.0892 42.2484 90.0286 42.3293C89.968 42.4079 89.913 42.4887 89.8636 42.5718C89.8164 42.6526 89.7782 42.7312 89.7491 42.8076C89.7221 42.8839 89.7086 42.949 89.7086 43.0029C89.7086 43.0815 89.7356 43.1433 89.7895 43.1882C89.8456 43.2331 89.9208 43.2555 90.0151 43.2555C90.1162 43.2555 90.224 43.2387 90.3385 43.205C90.453 43.1713 90.5664 43.1287 90.6787 43.077C90.7932 43.0254 90.9032 42.9692 91.0088 42.9086C91.1143 42.848 91.2097 42.7907 91.2951 42.7368C91.3827 42.6807 91.4556 42.6335 91.514 42.5954C91.5724 42.555 91.6106 42.5303 91.6285 42.5213C91.6645 42.5033 91.6981 42.4943 91.7296 42.4943C91.7565 42.4943 91.779 42.5011 91.7969 42.5145C91.8172 42.5258 91.8329 42.5404 91.8441 42.5583C91.8553 42.574 91.8632 42.592 91.8677 42.6122C91.8722 42.6302 91.8744 42.6459 91.8744 42.6594C91.8744 42.6796 91.8722 42.7043 91.8677 42.7335C91.8632 42.7604 91.8463 42.7919 91.8172 42.8278C91.8059 42.8413 91.7689 42.8761 91.706 42.9322C91.6454 42.9861 91.5657 43.0501 91.4669 43.1242C91.3703 43.1983 91.258 43.278 91.13 43.3633C91.0043 43.4464 90.8684 43.5228 90.7225 43.5924C90.5788 43.662 90.4294 43.7192 90.2745 43.7641C90.1196 43.8113 89.9669 43.8349 89.8164 43.8349C89.7019 43.8349 89.5997 43.8169 89.5099 43.781C89.4223 43.7451 89.3482 43.6968 89.2876 43.6362C89.227 43.5733 89.1809 43.5003 89.1495 43.4172C89.1181 43.3341 89.1024 43.2466 89.1024 43.1545C89.1024 43.0535 89.1259 42.9378 89.1731 42.8076C89.2202 42.6751 89.2854 42.5404 89.3684 42.4034C89.4515 42.2664 89.5492 42.1317 89.6615 41.9992C89.7738 41.8667 89.895 41.7488 90.0252 41.6455C90.1577 41.5422 90.2947 41.4592 90.4362 41.3963C90.5799 41.3334 90.7247 41.302 90.8707 41.302C90.9201 41.302 90.9661 41.3076 91.0088 41.3188C91.0537 41.33 91.0919 41.348 91.1233 41.3727C91.157 41.3952 91.1828 41.4266 91.2008 41.467C91.221 41.5074 91.2311 41.5557 91.2311 41.6118Z" fill="black"/>
<path d="M91.6323 43.2185C91.6862 43.104 91.7479 42.9771 91.8176 42.8379C91.8872 42.6964 91.9568 42.5572 92.0264 42.4202C92.0982 42.281 92.1656 42.1496 92.2285 42.0261C92.2914 41.9004 92.3441 41.7937 92.3868 41.7062L93.4983 39.5202C93.5118 39.491 93.532 39.4629 93.5589 39.436C93.5881 39.409 93.6207 39.3854 93.6566 39.3652C93.6925 39.3428 93.7307 39.3259 93.7711 39.3147C93.8116 39.3012 93.852 39.2945 93.8924 39.2945C93.9912 39.2945 94.0597 39.3136 94.0979 39.3518C94.136 39.3877 94.1551 39.4326 94.1551 39.4865C94.1551 39.5359 94.1428 39.5887 94.1181 39.6448C94.0934 39.6987 94.0653 39.7492 94.0339 39.7964C93.9351 39.9648 93.8396 40.1354 93.7476 40.3083C93.6577 40.479 93.5668 40.6519 93.4747 40.827C93.3849 40.9999 93.294 41.1729 93.2019 41.3458C93.1098 41.5164 93.0133 41.6859 92.9122 41.8544C92.9751 41.7937 93.0414 41.7309 93.111 41.6657C93.1828 41.6006 93.2603 41.5411 93.3434 41.4872C93.4265 41.4333 93.5174 41.3895 93.6162 41.3559C93.715 41.3199 93.825 41.302 93.9463 41.302C94.0181 41.302 94.0866 41.3087 94.1517 41.3222C94.2169 41.3356 94.2741 41.3581 94.3235 41.3895C94.3729 41.4187 94.4122 41.4603 94.4414 41.5142C94.4706 41.5658 94.4852 41.6298 94.4852 41.7062C94.4852 41.8072 94.4695 41.9004 94.438 41.9857C94.4089 42.0688 94.3707 42.1485 94.3235 42.2249C94.2764 42.299 94.2247 42.3708 94.1686 42.4404C94.1124 42.5078 94.0586 42.5774 94.0069 42.6493C93.9575 42.7189 93.9137 42.7919 93.8755 42.8682C93.8396 42.9445 93.8172 43.0276 93.8082 43.1174C93.8082 43.1219 93.8071 43.1264 93.8048 43.1309C93.8048 43.1354 93.8048 43.1399 93.8048 43.1444C93.8048 43.1893 93.8194 43.2174 93.8486 43.2286C93.88 43.2398 93.9193 43.2454 93.9665 43.2454C94.0271 43.2454 94.0922 43.2342 94.1618 43.2118C94.2315 43.1871 94.3011 43.1556 94.3707 43.1174C94.4425 43.077 94.5133 43.0321 94.5829 42.9827C94.6547 42.9333 94.7221 42.8828 94.785 42.8311C94.8501 42.7795 94.9096 42.7301 94.9635 42.6829C95.0174 42.6335 95.0634 42.5909 95.1016 42.555C95.1218 42.537 95.1431 42.5235 95.1656 42.5145C95.188 42.5056 95.2094 42.5011 95.2296 42.5011C95.27 42.5011 95.3037 42.5168 95.3306 42.5482C95.3598 42.5774 95.3744 42.6178 95.3744 42.6695C95.3744 42.7166 95.3576 42.7705 95.3239 42.8311C95.2925 42.8918 95.2374 42.9524 95.1589 43.013C95.0353 43.1208 94.9096 43.2241 94.7816 43.3229C94.6536 43.4217 94.5245 43.5093 94.3943 43.5856C94.264 43.662 94.1338 43.7226 94.0035 43.7675C93.8755 43.8124 93.7498 43.8349 93.6263 43.8349C93.4669 43.8349 93.3389 43.799 93.2423 43.7271C93.1458 43.653 93.0975 43.5374 93.0975 43.3802C93.0975 43.2656 93.1166 43.1579 93.1547 43.0568C93.1952 42.9535 93.2434 42.8547 93.2996 42.7604C93.358 42.6639 93.4197 42.5718 93.4848 42.4842C93.55 42.3944 93.6072 42.3068 93.6566 42.2215C93.6836 42.1833 93.7038 42.1485 93.7172 42.1171C93.733 42.0834 93.7408 42.0475 93.7408 42.0093C93.7408 41.9756 93.7318 41.9487 93.7139 41.9285C93.6959 41.906 93.6678 41.8948 93.6297 41.8948C93.4972 41.8948 93.3748 41.9273 93.2625 41.9925C93.1503 42.0576 93.047 42.1407 92.9527 42.2417C92.8583 42.3428 92.7708 42.4539 92.6899 42.5752C92.6091 42.6942 92.5339 42.8087 92.4643 42.9187C92.4328 42.9681 92.4003 43.0254 92.3666 43.0905C92.3351 43.1534 92.3015 43.2185 92.2655 43.2859C92.2318 43.3532 92.1959 43.4206 92.1577 43.488C92.1196 43.5531 92.0792 43.6115 92.0365 43.6631C91.9961 43.7147 91.9523 43.7563 91.9051 43.7877C91.8602 43.8192 91.8131 43.8349 91.7637 43.8349C91.6851 43.8349 91.6244 43.8113 91.5818 43.7641C91.5391 43.7192 91.5178 43.662 91.5178 43.5924C91.5178 43.5407 91.5268 43.4868 91.5447 43.4307C91.5627 43.3723 91.5919 43.3016 91.6323 43.2185Z" fill="black"/>
<path d="M99.3935 41.6118C99.3935 41.6815 99.3857 41.7589 99.37 41.8443C99.3542 41.9273 99.3284 42.0059 99.2925 42.08C99.2566 42.1541 99.2105 42.2159 99.1544 42.2653C99.0983 42.3147 99.0286 42.3394 98.9456 42.3394C98.9006 42.3394 98.8715 42.3326 98.858 42.3192C98.8468 42.3057 98.8411 42.2821 98.8411 42.2484C98.8411 42.2282 98.8411 42.199 98.8411 42.1609C98.8434 42.1204 98.8445 42.0823 98.8445 42.0463C98.8445 42.0059 98.8389 41.9722 98.8277 41.9453C98.8164 41.9161 98.7884 41.9015 98.7435 41.9015C98.6918 41.9015 98.6334 41.9217 98.5683 41.9621C98.5054 42.0003 98.4414 42.0508 98.3763 42.1137C98.3134 42.1766 98.2517 42.2484 98.1911 42.3293C98.1304 42.4079 98.0754 42.4887 98.026 42.5718C97.9789 42.6526 97.9407 42.7312 97.9115 42.8076C97.8846 42.8839 97.8711 42.949 97.8711 43.0029C97.8711 43.0815 97.898 43.1433 97.9519 43.1882C98.0081 43.2331 98.0833 43.2555 98.1776 43.2555C98.2786 43.2555 98.3864 43.2387 98.5009 43.205C98.6155 43.1713 98.7289 43.1287 98.8411 43.077C98.9557 43.0254 99.0657 42.9692 99.1712 42.9086C99.2768 42.848 99.3722 42.7907 99.4575 42.7368C99.5451 42.6807 99.6181 42.6335 99.6765 42.5954C99.7348 42.555 99.773 42.5303 99.791 42.5213C99.8269 42.5033 99.8606 42.4943 99.892 42.4943C99.919 42.4943 99.9414 42.5011 99.9594 42.5145C99.9796 42.5258 99.9953 42.5404 100.007 42.5583C100.018 42.574 100.026 42.592 100.03 42.6122C100.035 42.6302 100.037 42.6459 100.037 42.6594C100.037 42.6796 100.035 42.7043 100.03 42.7335C100.026 42.7604 100.009 42.7919 99.9796 42.8278C99.9684 42.8413 99.9313 42.8761 99.8685 42.9322C99.8078 42.9861 99.7281 43.0501 99.6293 43.1242C99.5328 43.1983 99.4205 43.278 99.2925 43.3633C99.1667 43.4464 99.0309 43.5228 98.8849 43.5924C98.7412 43.662 98.5919 43.7192 98.437 43.7641C98.282 43.8113 98.1293 43.8349 97.9789 43.8349C97.8644 43.8349 97.7622 43.8169 97.6724 43.781C97.5848 43.7451 97.5107 43.6968 97.4501 43.6362C97.3894 43.5733 97.3434 43.5003 97.312 43.4172C97.2805 43.3341 97.2648 43.2466 97.2648 43.1545C97.2648 43.0535 97.2884 42.9378 97.3355 42.8076C97.3827 42.6751 97.4478 42.5404 97.5309 42.4034C97.614 42.2664 97.7117 42.1317 97.8239 41.9992C97.9362 41.8667 98.0575 41.7488 98.1877 41.6455C98.3202 41.5422 98.4572 41.4592 98.5986 41.3963C98.7423 41.3334 98.8872 41.302 99.0331 41.302C99.0825 41.302 99.1286 41.3076 99.1712 41.3188C99.2161 41.33 99.2543 41.348 99.2857 41.3727C99.3194 41.3952 99.3453 41.4266 99.3632 41.467C99.3834 41.5074 99.3935 41.5557 99.3935 41.6118Z" fill="black"/>
<path d="M101.408 41.8948C101.303 41.8948 101.2 41.9217 101.102 41.9756C101.005 42.0273 100.919 42.0969 100.842 42.1844C100.768 42.2698 100.709 42.3675 100.664 42.4775C100.619 42.5853 100.596 42.6964 100.596 42.8109C100.596 42.8536 100.6 42.9008 100.607 42.9524C100.613 43.0018 100.627 43.049 100.647 43.0939C100.669 43.1365 100.701 43.1725 100.741 43.2017C100.782 43.2308 100.836 43.2454 100.903 43.2454C101.006 43.2454 101.106 43.2185 101.203 43.1646C101.301 43.1085 101.389 43.0366 101.465 42.949C101.542 42.8592 101.602 42.7582 101.647 42.6459C101.692 42.5336 101.715 42.4202 101.715 42.3057C101.715 42.2608 101.711 42.2148 101.705 42.1676C101.7 42.1182 101.687 42.0733 101.664 42.0329C101.644 41.9925 101.614 41.9599 101.573 41.9352C101.533 41.9082 101.478 41.8948 101.408 41.8948ZM101.583 41.302C101.669 41.302 101.76 41.3132 101.856 41.3356C101.955 41.3581 102.046 41.3963 102.129 41.4502C102.212 41.5041 102.281 41.5759 102.334 41.6657C102.391 41.7533 102.419 41.8622 102.419 41.9925C102.419 42.0598 102.41 42.1373 102.392 42.2249C102.374 42.3102 102.347 42.4 102.311 42.4943C102.333 42.5213 102.359 42.5404 102.388 42.5516C102.417 42.5628 102.449 42.5684 102.483 42.5684C102.53 42.5684 102.581 42.555 102.638 42.528C102.696 42.5011 102.755 42.4663 102.816 42.4236C102.877 42.3809 102.937 42.3326 102.998 42.2788C103.059 42.2249 103.116 42.171 103.17 42.1171C103.224 42.0632 103.272 42.0127 103.315 41.9655C103.359 41.9161 103.397 41.8746 103.426 41.8409C103.441 41.8252 103.461 41.8173 103.483 41.8173C103.514 41.8173 103.542 41.8341 103.567 41.8678C103.592 41.8993 103.604 41.9442 103.604 42.0026C103.604 42.0609 103.586 42.1283 103.55 42.2047C103.517 42.281 103.453 42.3607 103.358 42.4438C103.304 42.5022 103.243 42.5695 103.173 42.6459C103.103 42.7222 103.029 42.7941 102.951 42.8615C102.872 42.9288 102.79 42.9861 102.705 43.0332C102.62 43.0804 102.534 43.104 102.449 43.104C102.391 43.104 102.333 43.095 102.277 43.077C102.223 43.0591 102.168 43.0299 102.112 42.9895C102.031 43.1152 101.939 43.2297 101.836 43.333C101.733 43.4363 101.617 43.525 101.489 43.5991C101.363 43.6732 101.226 43.7305 101.078 43.7709C100.932 43.8135 100.776 43.8349 100.61 43.8349C100.547 43.8349 100.474 43.8225 100.391 43.7978C100.308 43.7731 100.228 43.7327 100.152 43.6766C100.078 43.6182 100.015 43.543 99.9632 43.4509C99.9115 43.3588 99.8857 43.2466 99.8857 43.1141C99.8857 43.0243 99.9003 42.9165 99.9295 42.7907C99.9587 42.665 100.002 42.5359 100.061 42.4034C100.121 42.2687 100.197 42.1362 100.287 42.0059C100.379 41.8734 100.487 41.7556 100.613 41.6523C100.739 41.5467 100.883 41.4625 101.044 41.3996C101.206 41.3345 101.386 41.302 101.583 41.302Z" fill="black"/>
<path d="M104.49 43.6362C104.49 43.5284 104.514 43.4183 104.561 43.3061C104.611 43.1938 104.672 43.0782 104.746 42.9591C104.821 42.8401 104.901 42.72 104.989 42.5987C105.077 42.4752 105.16 42.3495 105.238 42.2215C105.261 42.1856 105.279 42.1519 105.292 42.1204C105.306 42.0868 105.312 42.0531 105.312 42.0194C105.312 41.9835 105.302 41.9543 105.282 41.9318C105.262 41.9071 105.233 41.8948 105.194 41.8948C105.102 41.8948 105.014 41.915 104.928 41.9554C104.843 41.9936 104.761 42.0452 104.682 42.1103C104.604 42.1732 104.529 42.2462 104.457 42.3293C104.387 42.4124 104.321 42.4988 104.258 42.5886C104.197 42.6762 104.14 42.7638 104.086 42.8514C104.032 42.9389 103.983 43.0186 103.938 43.0905C103.898 43.1646 103.861 43.2454 103.827 43.333C103.793 43.4206 103.756 43.5014 103.716 43.5755C103.678 43.6496 103.634 43.7114 103.584 43.7608C103.535 43.8124 103.473 43.8383 103.399 43.8383C103.318 43.8383 103.254 43.8124 103.207 43.7608C103.16 43.7091 103.136 43.6474 103.136 43.5755C103.136 43.5351 103.151 43.4722 103.18 43.3869C103.209 43.3016 103.246 43.2028 103.291 43.0905C103.339 42.976 103.391 42.8547 103.45 42.7267C103.508 42.5987 103.565 42.4719 103.621 42.3461C103.68 42.2204 103.734 42.1025 103.783 41.9925C103.835 41.8802 103.877 41.7847 103.911 41.7062C103.952 41.6096 104.004 41.5377 104.069 41.4906C104.137 41.4434 104.203 41.4199 104.268 41.4199C104.324 41.4199 104.374 41.4412 104.416 41.4839C104.461 41.5243 104.484 41.5838 104.484 41.6624C104.484 41.7208 104.47 41.7847 104.443 41.8544C104.504 41.7982 104.569 41.7376 104.639 41.6725C104.708 41.6074 104.784 41.5478 104.864 41.494C104.947 41.4378 105.04 41.3918 105.141 41.3559C105.242 41.3199 105.355 41.302 105.481 41.302C105.544 41.302 105.603 41.3098 105.659 41.3255C105.715 41.3413 105.765 41.366 105.807 41.3996C105.852 41.4333 105.888 41.4771 105.915 41.531C105.944 41.5849 105.961 41.65 105.966 41.7264C106.017 41.6747 106.074 41.6242 106.134 41.5748C106.195 41.5231 106.26 41.4771 106.33 41.4367C106.401 41.3963 106.479 41.3637 106.562 41.339C106.645 41.3143 106.737 41.302 106.838 41.302C106.912 41.302 106.983 41.3098 107.05 41.3255C107.118 41.3413 107.177 41.3682 107.229 41.4064C107.283 41.4423 107.324 41.4895 107.353 41.5478C107.385 41.6062 107.401 41.6781 107.401 41.7634C107.401 41.8981 107.369 42.0261 107.306 42.1474C107.246 42.2687 107.174 42.3798 107.091 42.4809C107.064 42.5145 107.028 42.5572 106.983 42.6088C106.938 42.6605 106.894 42.7155 106.852 42.7739C106.809 42.8323 106.772 42.8929 106.74 42.9558C106.709 43.0164 106.693 43.0737 106.693 43.1276C106.693 43.177 106.708 43.2084 106.737 43.2219C106.769 43.2353 106.809 43.2421 106.858 43.2421C106.953 43.2421 107.055 43.214 107.165 43.1579C107.275 43.1017 107.382 43.0344 107.485 42.9558C107.59 42.8749 107.688 42.7919 107.778 42.7065C107.87 42.6189 107.943 42.546 107.997 42.4876C108.01 42.4719 108.026 42.4606 108.044 42.4539C108.062 42.4472 108.08 42.4438 108.098 42.4438C108.138 42.4438 108.174 42.4618 108.206 42.4977C108.239 42.5336 108.256 42.5808 108.256 42.6392C108.256 42.6841 108.243 42.7335 108.216 42.7874C108.189 42.8413 108.143 42.894 108.078 42.9457C107.956 43.0624 107.832 43.1747 107.704 43.2825C107.578 43.388 107.45 43.4823 107.32 43.5654C107.192 43.6463 107.063 43.7114 106.932 43.7608C106.804 43.8102 106.676 43.8349 106.548 43.8349C106.382 43.8349 106.248 43.7956 106.144 43.717C106.043 43.6384 105.993 43.5138 105.993 43.3431C105.993 43.2308 106.014 43.1253 106.057 43.0265C106.099 42.9277 106.152 42.8334 106.215 42.7436C106.278 42.6515 106.344 42.5628 106.414 42.4775C106.483 42.3922 106.544 42.3068 106.596 42.2215C106.618 42.1856 106.636 42.1519 106.65 42.1204C106.663 42.0868 106.67 42.0531 106.67 42.0194C106.67 41.9835 106.66 41.9543 106.639 41.9318C106.619 41.9071 106.59 41.8948 106.552 41.8948C106.46 41.8948 106.371 41.915 106.286 41.9554C106.2 41.9936 106.118 42.0452 106.04 42.1103C105.961 42.1732 105.886 42.2462 105.814 42.3293C105.745 42.4124 105.678 42.4988 105.615 42.5886C105.555 42.6762 105.498 42.7638 105.444 42.8514C105.39 42.9389 105.34 43.0186 105.295 43.0905C105.255 43.1646 105.218 43.2454 105.184 43.333C105.151 43.4206 105.114 43.5014 105.073 43.5755C105.035 43.6496 104.991 43.7114 104.942 43.7608C104.892 43.8124 104.831 43.8383 104.757 43.8383C104.73 43.8383 104.7 43.8326 104.669 43.8214C104.638 43.8124 104.608 43.799 104.581 43.781C104.557 43.763 104.535 43.7417 104.517 43.717C104.502 43.6923 104.493 43.6653 104.49 43.6362Z" fill="black"/>
<path d="M111.85 42.1676C111.882 42.1496 111.911 42.135 111.938 42.1238C111.965 42.1126 111.991 42.107 112.016 42.107C112.065 42.107 112.102 42.1261 112.127 42.1642C112.151 42.2002 112.164 42.2451 112.164 42.299C112.164 42.3573 112.148 42.4169 112.117 42.4775C112.087 42.5381 112.042 42.5886 111.982 42.6291C111.742 42.8087 111.527 42.9726 111.339 43.1208C111.15 43.269 110.971 43.397 110.803 43.5048C110.637 43.6103 110.474 43.6923 110.315 43.7507C110.155 43.8091 109.984 43.8383 109.803 43.8383C109.632 43.8383 109.499 43.8068 109.405 43.7439C109.313 43.6811 109.267 43.5946 109.267 43.4846C109.267 43.4756 109.267 43.4677 109.267 43.461C109.267 43.452 109.268 43.4419 109.27 43.4307C109.279 43.3633 109.314 43.2859 109.375 43.1983C109.435 43.1107 109.508 43.0198 109.594 42.9255C109.679 42.8311 109.77 42.7357 109.867 42.6392C109.963 42.5426 110.052 42.4517 110.133 42.3663C110.216 42.2788 110.284 42.199 110.338 42.1272C110.392 42.0553 110.419 41.9969 110.419 41.952C110.419 41.9251 110.408 41.9038 110.385 41.888C110.363 41.8723 110.326 41.8645 110.274 41.8645C110.184 41.8645 110.091 41.8847 109.995 41.9251C109.9 41.9633 109.806 42.016 109.712 42.0834C109.62 42.1485 109.529 42.2237 109.439 42.3091C109.351 42.3944 109.268 42.4831 109.19 42.5752C109.113 42.6672 109.043 42.7604 108.977 42.8547C108.915 42.9468 108.861 43.0321 108.816 43.1107C108.802 43.1354 108.783 43.1702 108.758 43.2151C108.734 43.26 108.707 43.3106 108.678 43.3667C108.648 43.4228 108.617 43.4812 108.583 43.5418C108.552 43.6002 108.523 43.6564 108.496 43.7103C108.469 43.7619 108.444 43.8079 108.422 43.8484C108.401 43.891 108.387 43.9202 108.378 43.9359C108.367 43.9561 108.348 43.9943 108.321 44.0504C108.296 44.1066 108.267 44.1717 108.233 44.2458C108.199 44.3222 108.163 44.4019 108.125 44.485C108.089 44.568 108.054 44.6466 108.021 44.7207C107.989 44.7948 107.961 44.8599 107.937 44.9161C107.912 44.9722 107.896 45.0104 107.889 45.0306C107.867 45.089 107.841 45.144 107.812 45.1957C107.781 45.2473 107.746 45.2922 107.708 45.3304C107.667 45.3708 107.622 45.4022 107.573 45.4247C107.521 45.4494 107.464 45.4617 107.401 45.4617C107.32 45.4617 107.254 45.4449 107.202 45.4112C107.148 45.3798 107.121 45.318 107.121 45.226C107.121 45.1811 107.128 45.135 107.142 45.0879C107.155 45.0407 107.172 44.9936 107.192 44.9464C107.212 44.9015 107.234 44.8566 107.256 44.8117C107.276 44.769 107.296 44.7275 107.313 44.687C107.435 44.4625 107.558 44.2368 107.684 44.01C107.81 43.7855 107.93 43.5632 108.044 43.3431C108.161 43.1208 108.269 42.903 108.368 42.6897C108.467 42.4764 108.548 42.272 108.614 42.0767C108.632 42.0362 108.656 41.979 108.688 41.9049C108.719 41.8308 108.755 41.7578 108.795 41.6859C108.836 41.6141 108.881 41.5523 108.93 41.5007C108.982 41.4468 109.037 41.4199 109.095 41.4199C109.185 41.4199 109.25 41.4378 109.291 41.4737C109.331 41.5074 109.351 41.558 109.351 41.6253C109.351 41.6388 109.349 41.6601 109.345 41.6893C109.34 41.7185 109.334 41.7499 109.328 41.7836C109.321 41.8151 109.313 41.8454 109.304 41.8746C109.297 41.9038 109.291 41.9251 109.284 41.9386C109.367 41.8622 109.457 41.787 109.553 41.7129C109.65 41.6365 109.75 41.5681 109.853 41.5074C109.956 41.4468 110.062 41.3974 110.17 41.3592C110.278 41.3211 110.385 41.302 110.493 41.302C110.567 41.302 110.64 41.3109 110.712 41.3289C110.786 41.3469 110.851 41.3738 110.907 41.4098C110.966 41.4434 111.013 41.4872 111.049 41.5411C111.085 41.5928 111.103 41.6534 111.103 41.723C111.103 41.8151 111.075 41.9139 111.019 42.0194C110.965 42.1227 110.896 42.2271 110.813 42.3326C110.73 42.4382 110.64 42.5415 110.544 42.6425C110.447 42.7413 110.356 42.8323 110.271 42.9154C110.188 42.9962 110.117 43.0658 110.059 43.1242C110.002 43.1803 109.973 43.2185 109.971 43.2387C109.971 43.2656 109.981 43.2881 110.001 43.3061C110.022 43.3218 110.055 43.3296 110.102 43.3296C110.141 43.3296 110.197 43.3117 110.271 43.2758C110.345 43.2398 110.448 43.1781 110.581 43.0905C110.715 43.0007 110.885 42.8817 111.089 42.7335C111.296 42.583 111.55 42.3944 111.85 42.1676Z" fill="black"/>
<path d="M113.431 41.7634C113.419 41.7612 113.409 41.76 113.4 41.76C113.391 41.76 113.381 41.76 113.37 41.76C113.285 41.76 113.205 41.7769 113.131 41.8106C113.057 41.8443 112.988 41.8892 112.925 41.9453C112.865 41.9992 112.81 42.0609 112.76 42.1306C112.713 42.2002 112.671 42.2698 112.632 42.3394C112.594 42.4067 112.562 42.4719 112.535 42.5347C112.51 42.5976 112.491 42.6504 112.477 42.693C112.556 42.6526 112.637 42.6066 112.72 42.555C112.805 42.5033 112.885 42.4539 112.959 42.4067C113.033 42.3596 113.097 42.3169 113.151 42.2788C113.207 42.2406 113.246 42.2148 113.269 42.2013C113.37 42.1384 113.44 42.08 113.478 42.0261C113.516 41.97 113.535 41.9217 113.535 41.8813C113.535 41.8476 113.524 41.8207 113.501 41.8005C113.481 41.7803 113.458 41.7679 113.431 41.7634ZM113.552 41.2986C113.738 41.2986 113.877 41.3435 113.97 41.4333C114.062 41.5231 114.108 41.6478 114.108 41.8072C114.108 41.9015 114.083 42.0003 114.034 42.1036C113.984 42.2069 113.899 42.3124 113.778 42.4202C113.656 42.5258 113.493 42.6347 113.289 42.7469C113.087 42.857 112.833 42.9681 112.528 43.0804C112.539 43.1455 112.574 43.1972 112.632 43.2353C112.691 43.2713 112.768 43.2892 112.865 43.2892C112.968 43.2892 113.078 43.2746 113.195 43.2454C113.314 43.214 113.431 43.1747 113.545 43.1276C113.662 43.0804 113.775 43.0299 113.885 42.976C113.995 42.9198 114.094 42.8671 114.182 42.8177C114.272 42.7683 114.346 42.7256 114.404 42.6897C114.465 42.6538 114.505 42.6313 114.525 42.6223C114.545 42.6088 114.563 42.601 114.579 42.5987C114.597 42.5965 114.613 42.5954 114.626 42.5954C114.653 42.5954 114.676 42.6021 114.694 42.6156C114.712 42.6268 114.726 42.6414 114.737 42.6594C114.751 42.6751 114.76 42.693 114.764 42.7133C114.769 42.7312 114.771 42.7469 114.771 42.7604C114.771 42.7806 114.769 42.8053 114.764 42.8345C114.76 42.8615 114.743 42.8929 114.714 42.9288C114.703 42.9401 114.664 42.9704 114.599 43.0198C114.537 43.0692 114.455 43.1276 114.353 43.1949C114.252 43.2623 114.135 43.3341 114 43.4105C113.867 43.4846 113.726 43.5531 113.575 43.6159C113.427 43.6788 113.272 43.7305 113.111 43.7709C112.949 43.8135 112.79 43.8349 112.632 43.8349C112.498 43.8349 112.377 43.8091 112.272 43.7574C112.169 43.7058 112.08 43.6362 112.006 43.5486C111.934 43.461 111.879 43.36 111.841 43.2454C111.803 43.1309 111.784 43.0108 111.784 42.885C111.784 42.7885 111.803 42.6829 111.841 42.5684C111.879 42.4517 111.934 42.3349 112.006 42.2181C112.078 42.1014 112.165 41.988 112.269 41.8779C112.374 41.7657 112.492 41.6669 112.622 41.5815C112.752 41.4962 112.895 41.4277 113.05 41.3761C113.207 41.3244 113.374 41.2986 113.552 41.2986Z" fill="black"/>
<path d="M115.863 41.8779C115.78 42.0396 115.701 42.1979 115.627 42.3529C115.553 42.5056 115.483 42.647 115.418 42.7773C115.391 42.8311 115.364 42.894 115.337 42.9659C115.313 43.0355 115.3 43.0972 115.3 43.1511C115.3 43.1826 115.307 43.2073 115.321 43.2252C115.336 43.2432 115.361 43.2522 115.395 43.2522C115.442 43.2522 115.501 43.2387 115.573 43.2118C115.645 43.1826 115.723 43.1455 115.806 43.1006C115.889 43.0535 115.976 43.0007 116.068 42.9423C116.16 42.8817 116.25 42.8199 116.338 42.757C116.428 42.6919 116.513 42.6279 116.594 42.5651C116.675 42.4999 116.746 42.4404 116.809 42.3865C116.845 42.3618 116.879 42.3495 116.91 42.3495C116.949 42.3495 116.98 42.3663 117.005 42.4C117.029 42.4337 117.042 42.4764 117.042 42.528C117.042 42.5797 117.029 42.6324 117.005 42.6863C116.98 42.7402 116.935 42.793 116.87 42.8446C116.724 42.9771 116.576 43.1029 116.425 43.2219C116.277 43.3409 116.129 43.4464 115.981 43.5385C115.835 43.6283 115.69 43.7002 115.546 43.754C115.403 43.8079 115.263 43.8349 115.129 43.8349C115.039 43.8349 114.964 43.8225 114.903 43.7978C114.842 43.7754 114.793 43.7439 114.755 43.7035C114.719 43.6609 114.693 43.6126 114.677 43.5587C114.662 43.5025 114.654 43.443 114.654 43.3802C114.654 43.2679 114.673 43.1511 114.711 43.0299C114.749 42.9086 114.792 42.7997 114.839 42.7032C114.906 42.5639 114.973 42.4258 115.038 42.2889C115.105 42.1519 115.17 42.0205 115.233 41.8948H115.088C114.962 41.8948 114.876 41.8746 114.829 41.8341C114.782 41.7937 114.758 41.7477 114.758 41.6961C114.758 41.6736 114.765 41.6467 114.778 41.6152C114.794 41.5815 114.815 41.5512 114.842 41.5243C114.871 41.4951 114.906 41.4704 114.947 41.4502C114.987 41.43 115.033 41.4199 115.085 41.4199H115.449L116.159 40.0086C116.204 39.9232 116.259 39.8626 116.324 39.8267C116.392 39.7885 116.461 39.7694 116.533 39.7694C116.601 39.7694 116.662 39.7874 116.718 39.8233C116.775 39.8592 116.803 39.9187 116.803 40.0018C116.803 40.0445 116.793 40.0883 116.772 40.1332C116.754 40.1759 116.73 40.2264 116.698 40.2848C116.678 40.3229 116.653 40.369 116.624 40.4229C116.595 40.4745 116.563 40.5306 116.53 40.5913C116.498 40.6497 116.465 40.7114 116.429 40.7765C116.395 40.8416 116.361 40.9045 116.328 40.9651C116.251 41.1089 116.171 41.2604 116.085 41.4199H117.183C117.237 41.4199 117.287 41.4232 117.331 41.43C117.376 41.4345 117.415 41.4457 117.446 41.4636C117.48 41.4794 117.505 41.5018 117.523 41.531C117.541 41.5602 117.55 41.5995 117.55 41.6489C117.55 41.6736 117.546 41.6983 117.537 41.723C117.53 41.7477 117.516 41.7702 117.493 41.7904C117.473 41.8106 117.444 41.8274 117.406 41.8409C117.37 41.8544 117.322 41.8633 117.264 41.8678L115.863 41.8779Z" fill="black"/>
<path d="M118.477 41.7634C118.466 41.7612 118.456 41.76 118.447 41.76C118.438 41.76 118.428 41.76 118.416 41.76C118.331 41.76 118.251 41.7769 118.177 41.8106C118.103 41.8443 118.035 41.8892 117.972 41.9453C117.911 41.9992 117.856 42.0609 117.807 42.1306C117.76 42.2002 117.717 42.2698 117.679 42.3394C117.641 42.4067 117.608 42.4719 117.581 42.5347C117.556 42.5976 117.537 42.6504 117.524 42.693C117.602 42.6526 117.683 42.6066 117.766 42.555C117.852 42.5033 117.931 42.4539 118.005 42.4067C118.08 42.3596 118.144 42.3169 118.197 42.2788C118.254 42.2406 118.293 42.2148 118.315 42.2013C118.416 42.1384 118.486 42.08 118.524 42.0261C118.562 41.97 118.581 41.9217 118.581 41.8813C118.581 41.8476 118.57 41.8207 118.548 41.8005C118.528 41.7803 118.504 41.7679 118.477 41.7634ZM118.598 41.2986C118.785 41.2986 118.924 41.3435 119.016 41.4333C119.108 41.5231 119.154 41.6478 119.154 41.8072C119.154 41.9015 119.129 42.0003 119.08 42.1036C119.031 42.2069 118.945 42.3124 118.824 42.4202C118.703 42.5258 118.54 42.6347 118.336 42.7469C118.133 42.857 117.88 42.9681 117.574 43.0804C117.586 43.1455 117.62 43.1972 117.679 43.2353C117.737 43.2713 117.815 43.2892 117.911 43.2892C118.014 43.2892 118.124 43.2746 118.241 43.2454C118.36 43.214 118.477 43.1747 118.592 43.1276C118.708 43.0804 118.822 43.0299 118.932 42.976C119.042 42.9198 119.141 42.8671 119.228 42.8177C119.318 42.7683 119.392 42.7256 119.45 42.6897C119.511 42.6538 119.551 42.6313 119.572 42.6223C119.592 42.6088 119.61 42.601 119.626 42.5987C119.644 42.5965 119.659 42.5954 119.673 42.5954C119.7 42.5954 119.722 42.6021 119.74 42.6156C119.758 42.6268 119.773 42.6414 119.784 42.6594C119.797 42.6751 119.806 42.693 119.811 42.7133C119.815 42.7312 119.818 42.7469 119.818 42.7604C119.818 42.7806 119.815 42.8053 119.811 42.8345C119.806 42.8615 119.79 42.8929 119.76 42.9288C119.749 42.9401 119.711 42.9704 119.646 43.0198C119.583 43.0692 119.501 43.1276 119.4 43.1949C119.299 43.2623 119.181 43.3341 119.046 43.4105C118.914 43.4846 118.772 43.5531 118.622 43.6159C118.474 43.6788 118.319 43.7305 118.157 43.7709C117.995 43.8135 117.836 43.8349 117.679 43.8349C117.544 43.8349 117.424 43.8091 117.318 43.7574C117.215 43.7058 117.126 43.6362 117.052 43.5486C116.98 43.461 116.925 43.36 116.887 43.2454C116.849 43.1309 116.83 43.0108 116.83 42.885C116.83 42.7885 116.849 42.6829 116.887 42.5684C116.925 42.4517 116.98 42.3349 117.052 42.2181C117.124 42.1014 117.212 41.988 117.315 41.8779C117.421 41.7657 117.538 41.6669 117.669 41.5815C117.799 41.4962 117.941 41.4277 118.096 41.3761C118.254 41.3244 118.421 41.2986 118.598 41.2986Z" fill="black"/>
<path d="M120.444 41.7062C120.489 41.6096 120.546 41.5377 120.613 41.4906C120.68 41.4434 120.746 41.4199 120.812 41.4199C120.866 41.4199 120.914 41.4401 120.956 41.4805C120.999 41.5187 121.02 41.5759 121.02 41.6523C121.02 41.6815 121.017 41.7129 121.01 41.7466C121.004 41.7803 120.991 41.8162 120.973 41.8544C121.023 41.7915 121.093 41.7275 121.185 41.6624C121.278 41.595 121.379 41.5355 121.489 41.4839C121.601 41.43 121.715 41.3862 121.832 41.3525C121.951 41.3188 122.063 41.302 122.169 41.302C122.288 41.302 122.387 41.3312 122.465 41.3895C122.546 41.4457 122.587 41.5422 122.587 41.6792C122.587 41.76 122.574 41.8443 122.55 41.9318C122.525 42.0194 122.492 42.107 122.452 42.1946C122.414 42.2821 122.37 42.3686 122.321 42.4539C122.273 42.537 122.226 42.6156 122.179 42.6897C122.132 42.7638 122.088 42.8323 122.048 42.8951C122.01 42.9558 121.979 43.0063 121.957 43.0467C121.928 43.0826 121.913 43.1242 121.913 43.1713C121.913 43.1893 121.919 43.205 121.93 43.2185C121.941 43.232 121.959 43.2387 121.984 43.2387C121.999 43.2387 122.017 43.2376 122.038 43.2353C122.058 43.2308 122.083 43.2185 122.112 43.1983C122.233 43.1534 122.357 43.0972 122.482 43.0299C122.61 42.9625 122.733 42.8918 122.849 42.8177C122.966 42.7413 123.073 42.6661 123.169 42.592C123.268 42.5157 123.35 42.4472 123.415 42.3865C123.433 42.3708 123.451 42.3596 123.469 42.3529C123.487 42.3461 123.504 42.3428 123.52 42.3428C123.558 42.3428 123.587 42.3573 123.607 42.3865C123.63 42.4157 123.641 42.4528 123.641 42.4977C123.641 42.5673 123.618 42.6448 123.574 42.7301C123.531 42.8154 123.462 42.8951 123.368 42.9692C123.24 43.0613 123.122 43.1455 123.014 43.2219C122.909 43.2982 122.8 43.3701 122.688 43.4374C122.578 43.5025 122.459 43.5643 122.331 43.6227C122.205 43.6788 122.057 43.7316 121.886 43.781C121.828 43.799 121.774 43.8124 121.724 43.8214C121.677 43.8304 121.633 43.8349 121.593 43.8349C121.474 43.8349 121.386 43.8023 121.33 43.7372C121.276 43.6698 121.249 43.5767 121.249 43.4576C121.249 43.4419 121.249 43.4273 121.249 43.4139C121.252 43.3981 121.254 43.3813 121.256 43.3633C121.261 43.2937 121.279 43.2174 121.31 43.1343C121.344 43.0512 121.383 42.9659 121.428 42.8783C121.475 42.7907 121.525 42.7043 121.576 42.6189C121.628 42.5314 121.675 42.4494 121.718 42.3731C121.763 42.2945 121.8 42.2249 121.829 42.1642C121.858 42.1036 121.873 42.0542 121.873 42.016C121.873 41.9824 121.863 41.9543 121.842 41.9318C121.824 41.9071 121.796 41.8948 121.758 41.8948C121.614 41.8948 121.477 41.9374 121.347 42.0228C121.219 42.1081 121.099 42.2136 120.987 42.3394C120.874 42.4629 120.771 42.5942 120.677 42.7335C120.583 42.8727 120.499 42.9973 120.428 43.1073C120.383 43.1814 120.341 43.2612 120.303 43.3465C120.267 43.4296 120.229 43.5082 120.188 43.5823C120.148 43.6541 120.102 43.7136 120.05 43.7608C120.001 43.8102 119.938 43.8349 119.862 43.8349C119.783 43.8349 119.721 43.8102 119.677 43.7608C119.632 43.7114 119.609 43.6508 119.609 43.5789C119.609 43.5407 119.625 43.479 119.656 43.3936C119.688 43.3083 119.728 43.2095 119.778 43.0972C119.827 42.985 119.882 42.8648 119.943 42.7368C120.005 42.6066 120.067 42.4786 120.128 42.3529C120.191 42.2249 120.25 42.1047 120.306 41.9925C120.363 41.8802 120.409 41.7847 120.444 41.7062Z" fill="black"/>
<path d="M125.46 41.6118C125.46 41.6815 125.452 41.7589 125.437 41.8443C125.421 41.9273 125.395 42.0059 125.359 42.08C125.323 42.1541 125.277 42.2159 125.221 42.2653C125.165 42.3147 125.095 42.3394 125.012 42.3394C124.967 42.3394 124.938 42.3326 124.925 42.3192C124.913 42.3057 124.908 42.2821 124.908 42.2484C124.908 42.2282 124.908 42.199 124.908 42.1609C124.91 42.1204 124.911 42.0823 124.911 42.0463C124.911 42.0059 124.906 41.9722 124.894 41.9453C124.883 41.9161 124.855 41.9015 124.81 41.9015C124.758 41.9015 124.7 41.9217 124.635 41.9621C124.572 42.0003 124.508 42.0508 124.443 42.1137C124.38 42.1766 124.318 42.2484 124.258 42.3293C124.197 42.4079 124.142 42.4887 124.093 42.5718C124.046 42.6526 124.007 42.7312 123.978 42.8076C123.951 42.8839 123.938 42.949 123.938 43.0029C123.938 43.0815 123.965 43.1433 124.019 43.1882C124.075 43.2331 124.15 43.2555 124.244 43.2555C124.345 43.2555 124.453 43.2387 124.568 43.205C124.682 43.1713 124.796 43.1287 124.908 43.077C125.022 43.0254 125.132 42.9692 125.238 42.9086C125.343 42.848 125.439 42.7907 125.524 42.7368C125.612 42.6807 125.685 42.6335 125.743 42.5954C125.802 42.555 125.84 42.5303 125.858 42.5213C125.894 42.5033 125.927 42.4943 125.959 42.4943C125.986 42.4943 126.008 42.5011 126.026 42.5145C126.046 42.5258 126.062 42.5404 126.073 42.5583C126.084 42.574 126.092 42.592 126.097 42.6122C126.101 42.6302 126.104 42.6459 126.104 42.6594C126.104 42.6796 126.101 42.7043 126.097 42.7335C126.092 42.7604 126.075 42.7919 126.046 42.8278C126.035 42.8413 125.998 42.8761 125.935 42.9322C125.874 42.9861 125.795 43.0501 125.696 43.1242C125.599 43.1983 125.487 43.278 125.359 43.3633C125.233 43.4464 125.098 43.5228 124.952 43.5924C124.808 43.662 124.659 43.7192 124.504 43.7641C124.349 43.8113 124.196 43.8349 124.046 43.8349C123.931 43.8349 123.829 43.8169 123.739 43.781C123.651 43.7451 123.577 43.6968 123.517 43.6362C123.456 43.5733 123.41 43.5003 123.379 43.4172C123.347 43.3341 123.331 43.2466 123.331 43.1545C123.331 43.0535 123.355 42.9378 123.402 42.8076C123.449 42.6751 123.514 42.5404 123.598 42.4034C123.681 42.2664 123.778 42.1317 123.891 41.9992C124.003 41.8667 124.124 41.7488 124.254 41.6455C124.387 41.5422 124.524 41.4592 124.665 41.3963C124.809 41.3334 124.954 41.302 125.1 41.302C125.149 41.302 125.195 41.3076 125.238 41.3188C125.283 41.33 125.321 41.348 125.352 41.3727C125.386 41.3952 125.412 41.4266 125.43 41.467C125.45 41.5074 125.46 41.5557 125.46 41.6118Z" fill="black"/>
<path d="M127.576 41.7634C127.565 41.7612 127.555 41.76 127.546 41.76C127.537 41.76 127.526 41.76 127.515 41.76C127.43 41.76 127.35 41.7769 127.276 41.8106C127.202 41.8443 127.133 41.8892 127.071 41.9453C127.01 41.9992 126.955 42.0609 126.906 42.1306C126.858 42.2002 126.816 42.2698 126.778 42.3394C126.739 42.4067 126.707 42.4719 126.68 42.5347C126.655 42.5976 126.636 42.6504 126.623 42.693C126.701 42.6526 126.782 42.6066 126.865 42.555C126.95 42.5033 127.03 42.4539 127.104 42.4067C127.178 42.3596 127.242 42.3169 127.296 42.2788C127.352 42.2406 127.392 42.2148 127.414 42.2013C127.515 42.1384 127.585 42.08 127.623 42.0261C127.661 41.97 127.68 41.9217 127.68 41.8813C127.68 41.8476 127.669 41.8207 127.647 41.8005C127.626 41.7803 127.603 41.7679 127.576 41.7634ZM127.697 41.2986C127.883 41.2986 128.023 41.3435 128.115 41.4333C128.207 41.5231 128.253 41.6478 128.253 41.8072C128.253 41.9015 128.228 42.0003 128.179 42.1036C128.129 42.2069 128.044 42.3124 127.923 42.4202C127.802 42.5258 127.639 42.6347 127.434 42.7469C127.232 42.857 126.979 42.9681 126.673 43.0804C126.684 43.1455 126.719 43.1972 126.778 43.2353C126.836 43.2713 126.913 43.2892 127.01 43.2892C127.113 43.2892 127.223 43.2746 127.34 43.2454C127.459 43.214 127.576 43.1747 127.69 43.1276C127.807 43.0804 127.921 43.0299 128.031 42.976C128.141 42.9198 128.239 42.8671 128.327 42.8177C128.417 42.7683 128.491 42.7256 128.549 42.6897C128.61 42.6538 128.65 42.6313 128.671 42.6223C128.691 42.6088 128.709 42.601 128.724 42.5987C128.742 42.5965 128.758 42.5954 128.772 42.5954C128.799 42.5954 128.821 42.6021 128.839 42.6156C128.857 42.6268 128.872 42.6414 128.883 42.6594C128.896 42.6751 128.905 42.693 128.91 42.7133C128.914 42.7312 128.916 42.7469 128.916 42.7604C128.916 42.7806 128.914 42.8053 128.91 42.8345C128.905 42.8615 128.888 42.8929 128.859 42.9288C128.848 42.9401 128.81 42.9704 128.745 43.0198C128.682 43.0692 128.6 43.1276 128.499 43.1949C128.398 43.2623 128.28 43.3341 128.145 43.4105C128.013 43.4846 127.871 43.5531 127.721 43.6159C127.572 43.6788 127.418 43.7305 127.256 43.7709C127.094 43.8135 126.935 43.8349 126.778 43.8349C126.643 43.8349 126.523 43.8091 126.417 43.7574C126.314 43.7058 126.225 43.6362 126.151 43.5486C126.079 43.461 126.024 43.36 125.986 43.2454C125.948 43.1309 125.929 43.0108 125.929 42.885C125.929 42.7885 125.948 42.6829 125.986 42.5684C126.024 42.4517 126.079 42.3349 126.151 42.2181C126.223 42.1014 126.311 41.988 126.414 41.8779C126.519 41.7657 126.637 41.6669 126.767 41.5815C126.898 41.4962 127.04 41.4277 127.195 41.3761C127.352 41.3244 127.52 41.2986 127.697 41.2986Z" fill="black"/>
<path d="M132.868 43.2825C132.859 43.3521 132.838 43.4183 132.804 43.4812C132.77 43.5441 132.729 43.6002 132.68 43.6496C132.63 43.6968 132.574 43.7338 132.511 43.7608C132.448 43.79 132.383 43.8046 132.316 43.8046C132.215 43.8046 132.134 43.772 132.073 43.7069C132.013 43.6395 131.982 43.5576 131.982 43.461C131.982 43.3869 131.998 43.3162 132.029 43.2488C132.061 43.1814 132.102 43.1219 132.154 43.0703C132.208 43.0164 132.269 42.9737 132.336 42.9423C132.403 42.9109 132.473 42.8951 132.545 42.8951C132.646 42.8951 132.726 42.9266 132.784 42.9895C132.842 43.0523 132.872 43.132 132.872 43.2286C132.872 43.2376 132.872 43.2466 132.872 43.2555C132.872 43.2623 132.87 43.2713 132.868 43.2825ZM134.455 39.7088C134.331 39.9446 134.219 40.1568 134.118 40.3454C134.017 40.5318 133.918 40.7136 133.821 40.891C133.725 41.0684 133.626 41.2514 133.525 41.4401C133.424 41.6264 133.312 41.8375 133.188 42.0733C133.154 42.1384 133.106 42.1878 133.043 42.2215C132.98 42.2529 132.922 42.2687 132.868 42.2687C132.823 42.2687 132.786 42.2597 132.757 42.2417C132.73 42.2215 132.717 42.1912 132.717 42.1508C132.717 42.1238 132.722 42.098 132.733 42.0733C132.801 41.9161 132.864 41.7713 132.922 41.6388C132.98 41.5041 133.035 41.3749 133.087 41.2514C133.141 41.1279 133.193 41.0078 133.242 40.891C133.291 40.7743 133.342 40.6553 133.394 40.534C133.448 40.4105 133.504 40.2814 133.562 40.1467C133.62 40.0119 133.683 39.866 133.751 39.7088C133.769 39.6684 133.793 39.6324 133.825 39.601C133.858 39.5696 133.897 39.5437 133.939 39.5235C133.982 39.5011 134.027 39.4854 134.074 39.4764C134.121 39.4652 134.168 39.4595 134.215 39.4595C134.287 39.4595 134.348 39.473 134.397 39.5C134.449 39.5269 134.475 39.5696 134.475 39.628C134.475 39.6527 134.468 39.6796 134.455 39.7088Z" fill="black"/>
</svg>
