<svg width="130" height="220" viewBox="0 0 130 220" fill="none" xmlns="http://www.w3.org/2000/svg">
<path d="M36.4612 94.5702V170.669C36.4612 181.462 42.6808 187.499 55.303 187.499C67.9252 187.499 74.3277 181.462 74.3277 170.669V40.7947C74.3277 35.1239 76.157 33.1116 82.0108 33.1116H102.682C108.536 33.1116 110.548 35.1239 110.548 40.7947V169.023C110.548 199.755 91.5232 219.512 55.303 219.512C19.2657 219.512 0.240967 199.755 0.240967 169.023V94.5702C0.240967 88.8993 2.07027 86.8871 7.92404 86.8871H28.5952C34.4489 86.8871 36.4612 88.8993 36.4612 94.5702Z" fill="#FF0000"/>
<path d="M90.4534 0.93976C91.4467 0.0236595 92.9769 0.0236613 93.9701 0.939762L128.795 33.0604C130.531 34.6614 129.399 37.5603 127.037 37.5603H57.3864C55.0251 37.5603 53.8923 34.6614 55.6281 33.0604L90.4534 0.93976Z" fill="#FF0000"/>
</svg>
