<svg width="21" height="32" viewBox="0 0 21 32" fill="none" xmlns="http://www.w3.org/2000/svg">
<path d="M10.4929 0.783688L19.3373 14.1769C16.8952 18.5009 15.7986 22.9736 15.8208 27.57H5.16492C4.81993 22.9737 3.70007 18.5009 1.64844 14.1769L10.4929 0.783688Z" fill="#D6E4FF"/>
<path d="M12.6296 15.6307C12.6296 16.8088 11.6765 17.7619 10.4984 17.7619C9.32025 17.7619 8.36719 16.8088 8.36719 15.6307C8.36719 14.4526 9.32031 13.4995 10.4984 13.4995C11.6765 13.4995 12.6296 14.4526 12.6296 15.6307Z" fill="white"/>
<path d="M19.8107 25.4123V30.1205C19.8107 30.8441 19.224 31.4308 18.5004 31.4308H2.48998C1.76635 31.4308 1.17969 30.8441 1.17969 30.1205V25.4123C1.17969 24.6887 1.76635 24.1021 2.48998 24.1021H18.5005C19.2241 24.1021 19.8107 24.6887 19.8107 25.4123Z" fill="white"/>
<path d="M18.5011 23.5936H16.6235C17.0929 20.4033 18.1427 17.3316 19.783 14.4267C19.8769 14.2605 19.8699 14.0557 19.7647 13.8962L10.9203 0.503129C10.7159 0.192839 10.2671 0.206189 10.0715 0.503129L1.22714 13.8963C1.12903 14.0448 1.11588 14.2338 1.19212 14.3947C2.57473 17.309 3.55612 20.3914 4.13939 23.5937H2.49068C1.4879 23.5937 0.671875 24.4097 0.671875 25.4125V30.1205C0.671875 31.1238 1.4879 31.9398 2.49068 31.9398H18.5011C19.5041 31.9398 20.3201 31.1238 20.3201 30.1205V25.4125C20.3202 24.4097 19.5041 23.5936 18.5011 23.5936ZM10.2837 14.0298C10.3488 14.0599 10.4196 14.0793 10.4959 14.0793C10.5723 14.0793 10.6431 14.0599 10.7081 14.0298C11.5019 14.135 12.1186 14.8088 12.1186 15.6307C12.1186 16.5255 11.3907 17.2536 10.4959 17.2536C9.6011 17.2536 8.87325 16.5255 8.87325 15.6307C8.87325 14.8088 9.4899 14.135 10.2837 14.0298ZM2.23321 14.2186L9.9873 2.47676V13.0425C8.77454 13.2805 7.85605 14.3493 7.85605 15.6307C7.85605 17.0864 9.04036 18.2708 10.4959 18.2708C11.9515 18.2708 13.1358 17.0865 13.1358 15.6307C13.1358 14.3493 12.2173 13.2805 11.0045 13.0425V2.47676L18.7455 14.199C17.1041 17.1786 16.0642 20.3269 15.603 23.5937H5.16718C4.59016 20.3339 3.61622 17.1919 2.23321 14.2186ZM19.303 30.1205C19.303 30.563 18.9431 30.9227 18.5011 30.9227H2.49068C2.04863 30.9227 1.68906 30.5631 1.68906 30.1205V25.4125C1.68906 24.9704 2.04863 24.6109 2.49068 24.6109H18.5011C18.9431 24.6109 19.303 24.9704 19.303 25.4125V30.1205Z" fill="#585D69"/>
</svg>
