<svg width="32" height="30" viewBox="0 0 32 30" fill="none" xmlns="http://www.w3.org/2000/svg">
<path d="M29.8592 2.31852V21.9182C29.8592 22.819 29.1289 23.5492 28.2282 23.5492H3.54507C2.64425 23.5492 1.91406 22.8189 1.91406 21.9182V2.31852C1.91406 1.4177 2.64431 0.6875 3.54507 0.6875H28.2282C29.129 0.6875 29.8592 1.4177 29.8592 2.31852Z" fill="white"/>
<path d="M29.8592 2.31852V6.74949H16.8879C16.6233 6.74949 16.3807 6.60248 16.2582 6.36799L16.169 6.19707C16.0701 5.93 15.8154 5.7527 15.5305 5.7527H10.1806C9.89582 5.7527 9.64111 5.93 9.5422 6.19707L9.45297 6.36799C9.3305 6.60248 9.08787 6.74949 8.82332 6.74949H1.91406V2.31852C1.91406 1.4177 2.64431 0.6875 3.54507 0.6875H28.2282C29.1289 0.6875 29.8592 1.41775 29.8592 2.31852Z" fill="#D6E4FF"/>
<path d="M5.92086 3.44432C5.92086 3.95174 5.51082 4.36178 5.0034 4.36178C4.49597 4.36178 4.08594 3.95174 4.08594 3.44432C4.08594 2.93689 4.49597 2.52686 5.0034 2.52686C5.51082 2.52686 5.92086 2.93684 5.92086 3.44432Z" fill="white"/>
<path d="M9.21773 3.44432C9.21773 3.95174 8.80769 4.36178 8.30027 4.36178C7.79285 4.36178 7.38281 3.95174 7.38281 3.44432C7.38281 2.93689 7.79285 2.52686 8.30027 2.52686C8.80769 2.52686 9.21773 2.93684 9.21773 3.44432Z" fill="white"/>
<path d="M12.5225 3.44432C12.5225 3.95174 12.1124 4.36178 11.605 4.36178C11.0976 4.36178 10.6875 3.95174 10.6875 3.44432C10.6875 2.93689 11.0976 2.52686 11.605 2.52686C12.1124 2.52686 12.5225 2.93684 12.5225 3.44432Z" fill="white"/>
<path d="M28.659 3.44451C28.659 3.81107 28.3618 4.10826 27.9953 4.10826H19.1559C18.7894 4.10826 18.4922 3.81107 18.4922 3.44451C18.4922 3.07795 18.7894 2.78076 19.1559 2.78076H27.9953C28.3618 2.78076 28.659 3.07795 28.659 3.44451Z" fill="white"/>
<path d="M21.9627 26.7929C25.3195 23.4361 25.3195 17.9936 21.9627 14.6368C18.6059 11.28 13.1635 11.28 9.80666 14.6368C6.44986 17.9936 6.44986 23.4361 9.80666 26.7929C13.1635 30.1497 18.6059 30.1497 21.9627 26.7929Z" fill="#D6E4FF"/>
<path d="M13.25 17.2025V24.228C13.25 24.8461 13.929 25.2236 14.454 24.8975L20.1095 21.3848C20.606 21.0764 20.606 20.354 20.1095 20.0457L14.454 16.533C13.929 16.2069 13.25 16.5845 13.25 17.2025Z" fill="white"/>
<path d="M30.1942 2.3184C30.1942 2.18275 30.1804 2.05039 30.1541 1.92242C29.9706 1.0274 29.1768 0.352051 28.2283 0.352051H3.54458C2.46036 0.352051 1.57812 1.23441 1.57812 2.31846C1.57818 5.81205 1.57831 20.5321 1.57836 21.9189C1.57836 23.0028 2.46008 23.8846 3.54395 23.8846H6.35956C6.54489 23.8846 6.69499 23.7344 6.69499 23.5491C6.69499 23.3639 6.54489 23.2137 6.35956 23.2137H3.54388C2.82998 23.2137 2.24915 22.6328 2.24915 21.9189V7.085H8.82277C9.21359 7.085 9.56891 6.8699 9.74997 6.52309L9.8392 6.35211C9.84565 6.33969 9.85145 6.3268 9.85637 6.31367C9.90629 6.17891 10.0364 6.08832 10.1802 6.08832H15.5301C15.6739 6.08832 15.8041 6.17896 15.8539 6.31367C15.8589 6.3268 15.8647 6.33969 15.8711 6.35211L15.9604 6.52332C16.1412 6.86967 16.4964 7.085 16.8874 7.085H29.5232V21.9189C29.5232 22.6328 28.9424 23.2137 28.2284 23.2137H25.4128C25.2274 23.2137 25.0773 23.3639 25.0773 23.5491C25.0773 23.7344 25.2274 23.8846 25.4128 23.8846H28.2284C29.3122 23.8846 30.1941 23.0028 30.1941 21.9189C30.1941 20.0662 30.1942 5.34465 30.1942 2.3184ZM16.8874 6.4141C16.7473 6.4141 16.6199 6.33699 16.5552 6.21295L16.4747 6.05879C16.3221 5.67418 15.9454 5.41736 15.5301 5.41736H10.1802C9.76496 5.41736 9.38821 5.67418 9.23557 6.05879L9.15518 6.21277C9.09032 6.33705 8.96287 6.4141 8.82277 6.4141H2.24919V2.31775C2.24919 1.60531 2.82886 1.02295 3.54458 1.02295H28.2277C28.8527 1.02295 29.3758 1.46779 29.4969 2.05754C29.5141 2.14162 29.5232 2.22869 29.5232 2.31781V6.41416L16.8874 6.4141Z" fill="#585D69"/>
<path d="M5.00291 2.19141C4.31203 2.19141 3.75 2.75355 3.75 3.44432C3.75 4.13508 4.31203 4.69717 5.00291 4.69717C5.69379 4.69717 6.25582 4.13502 6.25582 3.44426C6.25582 2.7535 5.69379 2.19141 5.00291 2.19141ZM4.42089 3.44426C4.42089 2.67416 5.58492 2.67451 5.58492 3.44426C5.58492 4.21436 4.42089 4.214 4.42089 3.44426Z" fill="#585D69"/>
<path d="M8.3076 2.19141C7.61672 2.19141 7.05469 2.75355 7.05469 3.44432C7.05469 4.13508 7.61672 4.69723 8.3076 4.69723C8.99848 4.69723 9.56051 4.13508 9.56051 3.44432C9.56051 2.75355 8.99848 2.19141 8.3076 2.19141ZM8.3076 4.02627C7.98668 4.02627 7.72559 3.76506 7.72559 3.44426C7.72559 3.12346 7.98668 2.86225 8.3076 2.86225C8.62851 2.86225 8.88961 3.12346 8.88961 3.44426C8.88961 3.76506 8.62851 4.02627 8.3076 4.02627Z" fill="#585D69"/>
<path d="M11.6045 2.19141C10.9136 2.19141 10.3516 2.75355 10.3516 3.44432C10.3516 4.13508 10.9136 4.69723 11.6045 4.69723C12.2953 4.69723 12.8574 4.13508 12.8574 3.44432C12.8574 2.75355 12.2953 2.19141 11.6045 2.19141ZM11.6045 4.02627C11.2835 4.02627 11.0224 3.76506 11.0224 3.44426C11.0224 3.12346 11.2835 2.86225 11.6045 2.86225C11.9254 2.86225 12.1865 3.12346 12.1865 3.44426C12.1865 3.76506 11.9254 4.02627 11.6045 4.02627Z" fill="#585D69"/>
<path d="M28.0025 2.44531H19.1632C18.6123 2.44531 18.1641 2.89367 18.1641 3.44469C18.1641 3.9957 18.6123 4.44383 19.1632 4.44383H28.0026C28.5536 4.44383 29.0018 3.9957 29.0018 3.44469C29.0018 2.89367 28.5535 2.44531 28.0025 2.44531ZM28.0025 3.77287H19.1632C18.9822 3.77287 18.835 3.62568 18.835 3.44463C18.835 3.26357 18.9822 3.11615 19.1632 3.11615H28.0026C28.1836 3.11615 28.3309 3.26357 28.3309 3.44463C28.3309 3.62568 28.1835 3.77287 28.0025 3.77287Z" fill="#585D69"/>
<path d="M15.8856 11.7827C10.9602 11.7827 6.95312 15.7899 6.95312 20.7153C6.95312 25.6406 10.9602 29.6476 15.8856 29.6476C20.8109 29.6476 24.8179 25.6406 24.8179 20.7153C24.8179 15.7899 20.8109 11.7827 15.8856 11.7827ZM15.8856 28.9768C11.3301 28.9768 7.62401 25.2707 7.62401 20.7153C7.62401 16.1597 11.3301 12.4537 15.8856 12.4537C20.4409 12.4537 24.147 16.1597 24.147 20.7153C24.147 25.2706 20.4409 28.9768 15.8856 28.9768Z" fill="#585D69"/>
<path d="M20.2861 19.7606L14.6306 16.2478C14.2791 16.0297 13.8535 16.0196 13.4917 16.2203C13.1301 16.4214 12.9141 16.7885 12.9141 17.2024V24.2277C12.9141 24.6416 13.13 25.0087 13.4917 25.2098C13.8532 25.4105 14.2787 25.4007 14.6306 25.1823L20.2861 21.6695C20.6184 21.4629 20.8169 21.1063 20.8169 20.7149C20.8169 20.3238 20.6183 19.9672 20.2861 19.7606ZM19.9321 21.0995L14.2766 24.6124C14.1351 24.7006 13.9635 24.7045 13.8177 24.6235C13.6721 24.5425 13.585 24.3944 13.585 24.2277V17.2024C13.585 17.0357 13.6721 16.8877 13.8177 16.8066C13.963 16.7259 14.1352 16.7296 14.2766 16.8177L19.9321 20.3306C20.068 20.4149 20.146 20.5551 20.146 20.7149C20.146 20.875 20.068 21.0152 19.9321 21.0995Z" fill="#585D69"/>
</svg>
