<svg width="32" height="30" viewBox="0 0 32 30" fill="none" xmlns="http://www.w3.org/2000/svg">
<path d="M30.4979 4.13299V18.4995C30.4979 19.8806 29.3783 21.0002 27.9973 21.0002H4.4616C3.08055 21.0002 1.96094 19.8806 1.96094 18.4995V4.13299C1.96094 2.75193 3.08055 1.63232 4.4616 1.63232H27.9973C29.3783 1.63232 30.4979 2.75193 30.4979 4.13299Z" fill="white"/>
<path d="M18.6154 7.27889L19.7595 13.8528C19.8808 14.55 19.3442 15.188 18.6365 15.188H10.2964C9.58873 15.188 9.05213 14.55 9.17342 13.8528L10.3175 7.27889C10.4124 6.73297 10.8864 6.33447 11.4405 6.33447H17.4924C18.0465 6.33447 18.5204 6.73297 18.6154 7.27889Z" fill="#D6E4FF"/>
<path d="M1.96094 17.1265V18.4994C1.96094 19.8805 3.08049 21 4.4616 21H27.9973C29.3784 21 30.4979 19.8805 30.4979 18.4994V17.1265H1.96094Z" fill="#D6E4FF"/>
<path d="M12.9766 21H19.4735V26.3773H12.9766V21Z" fill="white"/>
<path d="M22.4287 27.3724C22.4287 27.9219 21.9832 28.3673 21.4337 28.3673H11.0184C10.4689 28.3673 10.0234 27.9219 10.0234 27.3724C10.0234 26.8229 10.4689 26.3774 11.0184 26.3774H21.4337C21.9832 26.3774 22.4287 26.8228 22.4287 27.3724Z" fill="#D6E4FF"/>
<path d="M17.5328 21V22.3055C17.5328 23.0265 16.9483 23.611 16.2273 23.611C15.5063 23.611 14.9219 23.0265 14.9219 22.3055V21H17.5328Z" fill="#E9DECE"/>
<path d="M22.5817 10.3576L23.2804 14.3725C23.3545 14.7983 23.0268 15.188 22.5946 15.188H17.501C17.0688 15.188 16.7411 14.7983 16.8152 14.3725L17.5139 10.3576C17.5719 10.0242 17.8613 9.78076 18.1998 9.78076H21.8959C22.2343 9.78076 22.5237 10.0242 22.5817 10.3576Z" fill="white"/>
<path d="M27.9938 1.25293H4.4583C2.87011 1.25293 1.57812 2.54492 1.57812 4.13281V18.4994C1.57812 20.0876 2.87011 21.3796 4.4583 21.3796H12.5981V24.8601C12.5981 25.0697 12.768 25.2396 12.9776 25.2396C13.1871 25.2396 13.357 25.0698 13.357 24.8601V21.3811H14.5411V22.3054C14.5411 23.2346 15.2968 23.9906 16.226 23.9906C17.1552 23.9906 17.9111 23.2346 17.9111 22.3054V21.3811H19.095V24.8601C19.095 25.0697 19.2648 25.2396 19.4744 25.2396C19.684 25.2396 19.8539 25.0698 19.8539 24.8601V21.3796H27.9938C29.582 21.3796 30.874 20.0876 30.874 18.4994C30.874 14.1465 30.874 8.23514 30.874 4.13281C30.874 2.54492 29.582 1.25293 27.9938 1.25293ZM17.1522 22.3055C17.1522 22.8164 16.7369 23.2317 16.226 23.2317C15.7155 23.2317 15.3002 22.8164 15.3002 22.3055V21.3812H17.1522V22.3055ZM30.1151 18.4995C30.1151 19.6691 29.1634 20.6207 27.9938 20.6207C23.1797 20.6207 9.28889 20.6207 4.4583 20.6207C3.28871 20.6207 2.33703 19.6691 2.33703 18.4995V17.506H30.115L30.1151 18.4995ZM30.1151 16.7471H2.33709V4.13281C2.33709 2.96322 3.28876 2.01189 4.45835 2.01189H27.9938C29.1634 2.01189 30.1151 2.96328 30.1151 4.13281V16.7471Z" fill="#585D69"/>
<path d="M21.4303 25.998H11.015C10.2573 25.998 9.64062 26.6147 9.64062 27.3725C9.64062 28.1303 10.2573 28.7466 11.015 28.7466H21.4303C22.1881 28.7466 22.8047 28.1303 22.8047 27.3725C22.8047 26.6147 22.188 25.998 21.4303 25.998ZM21.4303 27.9877H11.015C10.6756 27.9877 10.3996 27.7116 10.3996 27.3725C10.3996 27.033 10.6756 26.757 11.015 26.757H21.4303C21.7697 26.757 22.0458 27.033 22.0458 27.3725C22.0458 27.7116 21.7697 27.9877 21.4303 27.9877Z" fill="#585D69"/>
<path d="M15.5748 19.443H16.8804C17.09 19.443 17.2599 19.2732 17.2599 19.0635C17.2599 18.8539 17.09 18.6841 16.8804 18.6841H15.5748C15.3652 18.6841 15.1953 18.8539 15.1953 19.0635C15.1953 19.2732 15.3652 19.443 15.5748 19.443Z" fill="#585D69"/>
<path d="M22.9583 10.2928C22.8685 9.77636 22.4226 9.40129 21.8987 9.40129H19.373L18.9933 7.2151C18.8679 6.48549 18.2385 5.95598 17.4964 5.95598H16.9148V5.53855C16.9148 4.19107 15.8184 3.09473 14.4709 3.09473C13.1235 3.09473 12.0275 4.19107 12.0275 5.53855V5.95598H11.4458C10.704 5.95598 10.0744 6.48549 9.94861 7.21422L8.80422 13.787C8.64174 14.7212 9.36209 15.5673 10.3014 15.5673C10.5405 15.5673 22.1862 15.5676 22.5975 15.5676C23.267 15.5676 23.7712 14.9631 23.6571 14.3076L22.9583 10.2928ZM12.7864 5.53861C12.7864 4.60949 13.5421 3.85375 14.4709 3.85375C15.4001 3.85375 16.1558 4.60943 16.1558 5.53861V5.95604H12.7864V5.53861ZM9.55193 13.9174L10.6963 7.34406C10.7592 6.97943 11.0746 6.71494 11.4458 6.71494H12.0275V8.24887C12.0275 8.45846 12.1973 8.62832 12.4069 8.62832C12.6165 8.62832 12.7864 8.45846 12.7864 8.24887V6.71494H16.1557V8.24887C16.1557 8.45846 16.3256 8.62832 16.5352 8.62832C16.7448 8.62832 16.9146 8.45846 16.9146 8.24887V6.71494H17.4963C17.8678 6.71494 18.1826 6.97938 18.2455 7.34436L18.6026 9.40129H18.2025C17.6784 9.40129 17.2325 9.77606 17.1426 10.2928L16.4441 14.3073C16.4146 14.4773 16.4297 14.6479 16.4794 14.8083H10.3014C9.82891 14.8083 9.47102 14.3829 9.55193 13.9174ZM22.5975 14.8086C22.147 14.8086 24.0998 14.8087 17.5016 14.8083C17.3046 14.8069 17.1586 14.63 17.192 14.4374L17.8905 10.4229C17.9168 10.2705 18.0482 10.1603 18.2027 10.1603H21.8988C22.0529 10.1603 22.1843 10.2705 22.2106 10.4229L22.9094 14.4377C22.9432 14.6328 22.7924 14.8086 22.5975 14.8086Z" fill="#585D69"/>
<path d="M21.1739 10.8604C20.9643 10.8604 20.7945 11.0302 20.7945 11.2398V11.9054C20.7945 12.316 20.4607 12.6498 20.05 12.6498C19.6397 12.6498 19.3059 12.316 19.3059 11.9054V11.2399C19.3059 11.0303 19.136 10.8604 18.9264 10.8604C18.7167 10.8604 18.5469 11.0303 18.5469 11.2399V11.9054C18.5469 12.7344 19.2211 13.4088 20.05 13.4088C20.879 13.4088 21.5534 12.7344 21.5534 11.9054V11.2399C21.5534 11.0302 21.3835 10.8604 21.1739 10.8604Z" fill="#585D69"/>
</svg>
