<svg width="32" height="30" viewBox="0 0 32 30" fill="none" xmlns="http://www.w3.org/2000/svg">
<path d="M24.0936 2.96893V25.1063C24.0936 26.5628 22.913 27.7434 21.4566 27.7434H4.97656V2.96893C4.97656 2.57646 5.29472 2.2583 5.68718 2.2583H23.383C23.7755 2.2583 24.0936 2.57646 24.0936 2.96893Z" fill="white"/>
<path d="M26.9141 13.793H29.9284V25.6003H26.9141V13.793Z" fill="#D6E4FF"/>
<path d="M26.9142 25.6001L26.9141 27.0317C26.9141 27.4246 27.2326 27.7432 27.6255 27.7432H29.2169C29.6098 27.7432 29.9284 27.4247 29.9284 27.0318L29.9285 25.6002L26.9142 25.6001Z" fill="#D6E4FF"/>
<path d="M26.9141 13.7943L28.4223 11.9663L29.9282 13.7943H26.9141Z" fill="white"/>
<path d="M21.5052 27.7432H4.59514C3.86934 27.7432 3.2101 27.4483 2.73297 26.9712C2.2559 26.4941 1.96094 25.8348 1.96094 25.1062V23.3532C1.96094 22.9607 2.2791 22.6426 2.67156 22.6426H18.1604C18.5528 22.6426 18.871 22.9607 18.871 23.3532V25.1062C18.871 25.8348 19.1659 26.4941 19.643 26.9712C20.1202 27.4483 20.7766 27.7432 21.5052 27.7432Z" fill="#D6E4FF"/>
<path d="M23.3797 1.80566H5.68396C5.04465 1.80566 4.52428 2.32779 4.52428 2.96975V20.8368C4.52428 21.0862 4.72607 21.288 4.97545 21.288C5.22482 21.288 5.42662 21.0862 5.42662 20.8368V2.96975C5.42662 2.8252 5.54205 2.70801 5.68396 2.70801H23.3797C23.5242 2.70801 23.6414 2.8252 23.6414 2.96975V25.1051C23.6414 26.2903 22.6787 27.2703 21.4956 27.2892C21.493 27.2893 21.4908 27.2907 21.4882 27.2908C20.3032 27.2828 19.3202 26.3243 19.3202 25.1064V23.3532C19.3202 22.713 18.799 22.1917 18.1583 22.1917H2.66926C2.02906 22.1917 1.50781 22.713 1.50781 23.3532V25.1064C1.50781 26.7994 2.87598 28.1947 4.59301 28.1947H21.5031C21.51 28.1947 21.5158 28.1911 21.5227 28.1908C23.1897 28.1569 24.5438 26.776 24.5438 25.1051V2.96975C24.5438 2.32779 24.0216 1.80566 23.3797 1.80566ZM4.59301 27.2923C3.395 27.2923 2.41021 26.3225 2.41021 25.1064V23.3532C2.41021 23.2104 2.52652 23.0941 2.66932 23.0941H18.1584C18.3016 23.0941 18.4179 23.2104 18.4179 23.3532V25.1064C18.4179 25.9317 18.7391 26.7076 19.3221 27.2905L19.3238 27.2923H4.59301Z" fill="#585D69"/>
<path d="M8.94337 6.66992H20.4814C20.7308 6.66992 20.9326 6.46813 20.9326 6.21875C20.9326 5.96938 20.7308 5.76758 20.4814 5.76758H8.94337C8.69399 5.76758 8.49219 5.96938 8.49219 6.21875C8.49214 6.46813 8.69393 6.66992 8.94337 6.66992Z" fill="#585D69"/>
<path d="M8.94337 9.94727H20.4814C20.7308 9.94727 20.9326 9.74547 20.9326 9.49609C20.9326 9.24672 20.7308 9.04492 20.4814 9.04492H8.94337C8.69399 9.04492 8.49219 9.24672 8.49219 9.49609C8.49214 9.74547 8.69393 9.94727 8.94337 9.94727Z" fill="#585D69"/>
<path d="M8.94337 13.2246H20.4814C20.7308 13.2246 20.9326 13.0228 20.9326 12.7734C20.9326 12.5241 20.7308 12.3223 20.4814 12.3223H8.94337C8.69399 12.3223 8.49219 12.5241 8.49219 12.7734C8.49214 13.0228 8.69393 13.2246 8.94337 13.2246Z" fill="#585D69"/>
<path d="M8.94337 16.502H12.8763C13.1257 16.502 13.3275 16.3002 13.3275 16.0508C13.3275 15.8014 13.1257 15.5996 12.8763 15.5996H8.94337C8.69399 15.5996 8.49219 15.8014 8.49219 16.0508C8.49214 16.3002 8.69393 16.502 8.94337 16.502Z" fill="#585D69"/>
<path d="M19.2379 17.4452C19.1282 17.8374 19.0154 18.2432 18.7717 18.5155C18.3196 19.0213 18.019 18.6883 17.8081 18.4217C17.0834 17.5127 16.2635 17.636 15.7011 18.3503C15.5158 18.5851 15.3217 18.972 15.1723 19.1504C14.9305 19.4373 14.5343 19.5942 14.162 19.5404C13.7897 19.4902 13.4477 19.2368 13.2914 18.8957C13.1874 18.6693 12.9186 18.5705 12.693 18.6737C12.4665 18.7777 12.3669 19.0456 12.4709 19.272C12.7577 19.8968 13.3592 20.3423 14.0408 20.4348C14.7177 20.5262 15.4176 20.2598 15.8628 19.7312C16.1187 19.4263 16.2215 19.1472 16.4096 18.909C16.7344 18.4973 16.8785 18.7031 17.1014 18.9835C17.8655 19.9446 18.8384 19.7959 19.445 19.1165C19.8283 18.6878 19.9825 18.1331 20.1068 17.6876C20.1738 17.4475 20.0337 17.1985 19.7935 17.1319C19.5534 17.0636 19.3049 17.2051 19.2379 17.4452Z" fill="#585D69"/>
<path d="M30.2831 13.5073L28.8803 11.8048V11.3408C28.8803 11.0914 28.6785 10.8896 28.4291 10.8896C28.1798 10.8896 27.978 11.0914 27.978 11.3408V11.8042L26.5728 13.5069C26.507 13.5868 26.4692 13.7098 26.4692 13.7933C26.4691 15.7597 26.4689 23.1701 26.4688 27.0321C26.4688 27.6732 26.9905 28.1949 27.6315 28.1949H29.2227C29.8638 28.1949 30.3855 27.6732 30.3855 27.0321C30.3856 23.7788 30.3858 17.5941 30.3859 13.7933C30.3859 13.6997 30.3493 13.5877 30.2831 13.5073ZM28.4286 12.6759L28.9778 13.3421H27.8791L28.4286 12.6759ZM27.3715 14.2454H29.4834L29.4831 25.1493H27.3712L27.3715 14.2454ZM29.4831 27.0321C29.4831 27.1757 29.3663 27.2924 29.2227 27.2924H27.6315C27.4879 27.2924 27.3712 27.1757 27.3712 27.0321V26.0517H29.4831V27.0321Z" fill="#585D69"/>
</svg>
