<svg width="32" height="30" viewBox="0 0 32 30" fill="none" xmlns="http://www.w3.org/2000/svg">
<path d="M28.365 11.5086V25.4524C28.365 27.5757 26.6437 29.297 24.5204 29.297H14.5243C12.401 29.297 10.6797 27.5757 10.6797 25.4524V11.5086C10.6797 10.9521 11.1308 10.501 11.6872 10.501H27.3575C27.9139 10.501 28.365 10.9521 28.365 11.5086Z" fill="white"/>
<path d="M28.3652 15.2797V11.5086C28.3652 10.9521 27.9141 10.501 27.3576 10.501H11.6873C11.1309 10.501 10.6797 10.9521 10.6797 11.5086V15.2797H28.3652Z" fill="#D6E4FF"/>
<path d="M8.05021 16.5188C7.41576 17.1533 7.0226 18.0335 7.0226 19.003C7.0226 20.9421 8.59531 22.5148 10.5344 22.5148H10.6751V25.4524H10.4182C6.85502 25.4524 3.96875 22.5639 3.96875 19.003C3.96875 17.2203 4.69033 15.6073 5.85646 14.4412C7.02482 13.2729 8.63551 12.5513 10.4182 12.5513H10.6751V15.4889H10.5344C9.56486 15.489 8.68689 15.8821 8.05021 16.5188Z" fill="#D6E4FF"/>
<path d="M25.0601 17.5019V21.0085C25.0601 21.38 24.7589 21.6812 24.3873 21.6812H21.6962C21.3247 21.6812 21.0234 21.38 21.0234 21.0085V17.5019C21.0234 17.1303 21.3247 16.8291 21.6962 16.8291H24.3873C24.7589 16.829 25.0601 17.1303 25.0601 17.5019Z" fill="#D6E4FF"/>
<path d="M15.2797 8.93308C15.0621 9.28095 14.5752 9.32156 14.296 9.02085C13.4679 8.129 13.1646 6.76435 13.6141 5.61627C13.7564 5.25269 13.9515 4.94455 14.1402 4.64654C14.2716 4.43918 14.3957 4.24324 14.489 4.04695C14.8289 3.33252 14.7822 2.42906 14.4049 1.72582C14.2521 1.44117 14.2974 1.09183 14.5383 0.876676C14.8617 0.587868 15.3748 0.668902 15.5837 1.04882C16.1802 2.13328 16.2503 3.50836 15.7163 4.63101C15.5876 4.90136 15.4356 5.1416 15.2885 5.37375C15.127 5.62869 14.9746 5.86951 14.8799 6.11162C14.6268 6.75796 14.801 7.54962 15.2636 8.06671C15.454 8.27953 15.4973 8.58509 15.3459 8.82714L15.2797 8.93308Z" fill="white"/>
<path d="M20.0609 8.93308C19.8433 9.28095 19.3564 9.32156 19.0772 9.02085C18.2491 8.129 17.9458 6.76435 18.3953 5.61627C18.5376 5.25269 18.7327 4.94455 18.9213 4.64654C19.0528 4.43918 19.1769 4.24324 19.2702 4.04695C19.6101 3.33252 19.5634 2.42906 19.1861 1.72582C19.0333 1.44117 19.0785 1.09183 19.3195 0.876676C19.6429 0.587868 20.156 0.668902 20.3649 1.04882C20.9613 2.13328 21.0315 3.50836 20.4975 4.63101C20.3688 4.90136 20.2168 5.1416 20.0697 5.37375C19.9082 5.62869 19.7558 5.86951 19.6611 6.11162C19.408 6.75796 19.5822 7.54962 20.0448 8.06671C20.2352 8.27953 20.2785 8.58509 20.1271 8.82714L20.0609 8.93308Z" fill="white"/>
<path d="M24.8343 8.93308C24.6167 9.28095 24.1299 9.32156 23.8507 9.02085C23.0225 8.129 22.7193 6.76435 23.1687 5.61627C23.311 5.25269 23.5061 4.94455 23.6948 4.64654C23.8262 4.43918 23.9503 4.24324 24.0437 4.04695C24.3836 3.33252 24.3369 2.42906 23.9595 1.72582C23.8068 1.44117 23.852 1.09183 24.0929 0.876676C24.4163 0.587868 24.9294 0.668902 25.1384 1.04882C25.7348 2.13328 25.8049 3.50836 25.271 4.63101C25.1422 4.90136 24.9902 5.1416 24.8431 5.37375C24.6816 5.62869 24.5292 5.86951 24.4345 6.11162C24.1815 6.75796 24.3557 7.54962 24.8183 8.06671C25.0086 8.27953 25.0519 8.58509 24.9005 8.82714L24.8343 8.93308Z" fill="white"/>
<path d="M28.6994 25.4527C28.6994 22.1638 28.6994 14.7868 28.6994 11.5087C28.6994 10.7684 28.097 10.166 27.3566 10.166C23.088 10.166 14.6573 10.166 11.6863 10.166C10.9461 10.166 10.3438 10.7684 10.3438 11.5087V25.4527C10.3438 27.7574 12.2189 29.6324 14.5235 29.6324H24.5196C26.8243 29.6324 28.6994 27.7574 28.6994 25.4527ZM28.0292 11.5087V14.9448H23.375V10.8362H27.3566C27.7275 10.8362 28.0292 11.1379 28.0292 11.5087ZM11.014 11.5087C11.014 11.1379 11.3157 10.8362 11.6863 10.8362H22.7048V14.9448H11.014V11.5087ZM24.5197 28.9622H14.5236C12.5885 28.9622 11.014 27.3878 11.014 25.4527V15.6151H22.7048V15.8007C22.7048 15.9858 22.8549 16.1358 23.0399 16.1358C23.2249 16.1358 23.375 15.9858 23.375 15.8007V15.6151H28.0292V25.4527C28.0292 27.3878 26.4548 28.9622 24.5197 28.9622Z" fill="#585D69"/>
<path d="M9.44767 16.0165C9.62199 15.9543 9.71275 15.7625 9.65035 15.5882C9.58795 15.4138 9.39576 15.3228 9.22209 15.3856C7.70609 15.9279 6.6875 17.3817 6.6875 19.0029C6.6875 20.6145 7.70521 22.0679 9.22009 22.6196C9.6364 22.7703 9.86761 22.1421 9.44961 21.9898C8.19822 21.5341 7.35769 20.3338 7.35769 19.0029C7.35769 17.664 8.19763 16.4639 9.44767 16.0165Z" fill="#585D69"/>
<path d="M9.66427 12.587C9.63351 12.4045 9.46119 12.2812 9.27814 12.3125C6.00703 12.8657 3.63281 15.6796 3.63281 19.003C3.63281 22.3268 6.00703 25.1396 9.27838 25.6912C9.45967 25.7218 9.63345 25.6001 9.66451 25.4166C9.69527 25.234 9.57222 25.0612 9.38965 25.0304C6.44232 24.5334 4.303 21.9984 4.303 19.003C4.303 16.0076 6.44226 13.4719 9.38988 12.9732C9.57246 12.9424 9.69527 12.7696 9.66427 12.587Z" fill="#585D69"/>
<path d="M24.3865 16.4941H21.6954C21.1398 16.4941 20.6875 16.9462 20.6875 17.5021V21.0087C20.6875 21.5644 21.1397 22.0166 21.6954 22.0166H24.3865C24.9421 22.0166 25.3944 21.5645 25.3944 21.0087V17.5021C25.3944 16.9463 24.9421 16.4941 24.3865 16.4941ZM24.7242 21.0087C24.7242 21.1949 24.5728 21.3464 24.3865 21.3464H21.6954C21.5091 21.3464 21.3577 21.1949 21.3577 21.0087V17.5021C21.3577 17.3159 21.5091 17.1643 21.6954 17.1643H24.3865C24.5728 17.1643 24.7242 17.3159 24.7242 17.5021V21.0087Z" fill="#585D69"/>
<path d="M14.3208 0.626476C13.9704 0.939425 13.8858 1.45646 14.1153 1.88407C14.4493 2.50651 14.4794 3.29894 14.1921 3.90292C13.9741 4.36107 13.5683 4.82847 13.308 5.49386C12.8221 6.73452 13.1227 8.24343 14.056 9.2486C14.4882 9.71396 15.237 9.64224 15.5694 9.11038L15.6357 9.00456C15.8628 8.64175 15.8159 8.17499 15.5192 7.84306C15.1294 7.40741 14.9972 6.74548 15.1979 6.23337C15.3604 5.81659 15.7425 5.36771 16.0247 4.77462C16.5959 3.57374 16.5415 2.08417 15.8832 0.886984C15.5718 0.321202 14.8083 0.191241 14.3208 0.626476ZM15.4195 4.48669C15.1664 5.01896 14.7658 5.49737 14.5737 5.98915C14.28 6.73898 14.4594 7.66364 15.0196 8.28978C15.1156 8.39724 15.1348 8.54167 15.0676 8.64907L15.0013 8.75501C14.9002 8.91614 14.6761 8.93173 14.5473 8.79269C13.785 7.97196 13.5378 6.74448 13.9319 5.73814C14.1615 5.15185 14.5578 4.6947 14.7973 4.19085C15.1789 3.38876 15.1438 2.38353 14.7057 1.56714C14.6221 1.41116 14.6468 1.23409 14.7678 1.12581C14.9307 0.980675 15.1903 1.01829 15.2958 1.21013C15.8521 2.22163 15.8994 3.4773 15.4195 4.48669Z" fill="#585D69"/>
<path d="M20.343 9.11044L20.4093 9.00462C20.6364 8.6418 20.5895 8.17505 20.2928 7.84311C19.903 7.40735 19.7708 6.74553 19.9715 6.23307C20.1327 5.81993 20.5176 5.36348 20.7981 4.77479C21.3693 3.57391 21.3151 2.08434 20.6567 0.887038C20.3454 0.321199 19.5819 0.191238 19.0945 0.626472C18.7441 0.939421 18.6595 1.45645 18.889 1.88407C19.223 2.50651 19.2531 3.29893 18.9658 3.90292C18.7462 4.3644 18.3416 4.82846 18.0814 5.49385C17.5955 6.73452 17.8964 8.24354 18.8297 9.2486C19.2618 9.71401 20.0106 9.64229 20.343 9.11044ZM18.7053 5.73813C18.935 5.1512 19.3305 4.69663 19.571 4.19085C19.9525 3.38876 19.9174 2.38352 19.4793 1.56714C19.3958 1.41116 19.4204 1.23409 19.5415 1.12581C19.7054 0.979675 19.9649 1.01999 20.0694 1.21012C20.6257 2.22186 20.673 3.47735 20.1929 4.4868C19.9394 5.01971 19.5382 5.49989 19.3473 5.98915C19.0535 6.73886 19.2327 7.66352 19.7932 8.28989C19.8892 8.39735 19.9084 8.54178 19.8412 8.64919L19.7749 8.75512C19.6745 8.91525 19.4504 8.93272 19.3209 8.7928C18.5587 7.97196 18.3115 6.74448 18.7053 5.73813Z" fill="#585D69"/>
<path d="M22.8548 5.49389C22.3689 6.73456 22.6698 8.24358 23.6031 9.24864C24.0334 9.71194 24.7823 9.64467 25.1164 9.11053C25.1164 9.11065 25.1164 9.11041 25.1164 9.11053L25.1825 9.00459C25.4096 8.64155 25.3627 8.17473 25.066 7.84309C24.6762 7.40733 24.544 6.7454 24.7447 6.2334C24.9073 5.81645 25.2889 5.3685 25.5715 4.77477C26.1427 3.57413 26.0883 2.08444 25.43 0.887251C25.1205 0.323638 24.3619 0.192505 23.8745 0.620532C23.8723 0.622524 23.8699 0.624575 23.8677 0.626509C23.5174 0.939458 23.4329 1.45649 23.6623 1.88387C23.9962 2.50637 24.0264 3.29885 23.7388 3.90307C23.5213 4.36163 23.1162 4.82581 22.8548 5.49389ZM24.3442 4.19082C24.7257 3.38885 24.6906 2.38356 24.2528 1.56711C24.1701 1.41278 24.1932 1.2377 24.3104 1.12983C24.3119 1.12854 24.3134 1.12719 24.3149 1.12579C24.4779 0.980474 24.7375 1.01885 24.8427 1.2101C25.3992 2.22196 25.4466 3.47745 24.9664 4.48678C24.7127 5.02022 24.3119 5.49963 24.1206 5.98924C23.8269 6.73883 24.0063 7.66338 24.5665 8.2901C24.6625 8.39733 24.6817 8.54165 24.6142 8.64963L24.5481 8.75534C24.4477 8.91565 24.2241 8.93264 24.0944 8.79278C23.3321 7.97206 23.0849 6.74457 23.4787 5.73823C23.7096 5.1486 24.105 4.69456 24.3442 4.19082Z" fill="#585D69"/>
</svg>
