<svg width="27" height="26" viewBox="0 0 27 26" fill="none" xmlns="http://www.w3.org/2000/svg">
<g clip-path="url(#clip0_1166_256)">
<path d="M24.9749 10.5118V21.5795C24.9749 22.9028 23.9022 23.9756 22.5788 23.9756H3.63828C2.31494 23.9756 1.24219 22.9028 1.24219 21.5795V10.5118C1.24219 9.18848 2.31494 8.11572 3.63828 8.11572H22.5788C23.9021 8.11572 24.9749 9.18848 24.9749 10.5118Z" fill="#D6E4FF"/>
<path d="M24.9749 15.4942V10.5118C24.9749 9.18848 23.9022 8.11572 22.5788 8.11572H3.63828C2.31494 8.11572 1.24219 9.18848 1.24219 10.5118V15.4941C9.11924 17.6331 17.0304 17.6148 24.9749 15.4942Z" fill="white"/>
<path d="M14.6656 15.5132V18.67C14.6656 18.9483 14.44 19.1739 14.1617 19.1739H12.0509C11.7725 19.1739 11.5469 18.9483 11.5469 18.67V15.5132C11.5469 15.2349 11.7725 15.0093 12.0509 15.0093H14.1617C14.44 15.0093 14.6656 15.2349 14.6656 15.5132Z" fill="white"/>
<path d="M9.87241 6.83223V8.11587H6.60156V6.83223C6.60156 6.61694 6.77612 6.44238 6.99141 6.44238H9.48257C9.6979 6.44238 9.87241 6.61689 9.87241 6.83223Z" fill="#D6E4FF"/>
<path d="M19.6146 6.83223V8.11587H16.3438V6.83223C16.3438 6.61694 16.5184 6.44238 16.7337 6.44238H19.2247C19.44 6.44238 19.6146 6.61689 19.6146 6.83223Z" fill="#D6E4FF"/>
<path d="M18.6184 6.41035H17.3506V4.32485C17.3506 3.75503 16.8873 3.2917 16.3174 3.2917H9.90249C9.33267 3.2917 8.86934 3.75503 8.86934 4.32485V6.41035H7.60156V4.32485C7.60156 3.05615 8.63379 2.02393 9.90249 2.02393H16.3174C17.5861 2.02393 18.6184 3.05615 18.6184 4.32485V6.41035Z" fill="white"/>
<path d="M22.5786 7.81924H19.915V6.83218C19.915 6.45371 19.607 6.1457 19.2285 6.1457H18.9135V4.32515C18.9135 2.89282 17.7482 1.72754 16.3159 1.72754H9.90093C8.4686 1.72754 7.30332 2.89287 7.30332 4.32515V6.14565H6.98813C6.60966 6.14565 6.30166 6.45366 6.30166 6.83213V7.81919H3.63794C2.15327 7.81919 0.945312 9.02715 0.945312 10.5118V21.5795C0.945312 23.0642 2.15327 24.2721 3.63794 24.2721H22.5786C24.0633 24.2721 25.2713 23.0642 25.2713 21.5795C25.2713 20.1573 25.2713 11.6506 25.2713 10.5118C25.2713 9.0272 24.0633 7.81924 22.5786 7.81924ZM19.2285 6.73897C19.28 6.73897 19.3217 6.78066 19.3217 6.83213V7.81919H16.6441V6.83213C16.6441 6.78066 16.6858 6.73897 16.7372 6.73897H19.2285ZM9.47934 6.14565H9.16435V4.32515C9.16435 3.91909 9.49487 3.58862 9.90088 3.58862H16.3158C16.7219 3.58862 17.0524 3.91914 17.0524 4.32515V6.14565H16.7372C16.3587 6.14565 16.0507 6.45366 16.0507 6.83213V7.81919H10.1658V6.83213C10.1658 6.45366 9.85781 6.14565 9.47934 6.14565ZM7.89663 4.32515C7.89663 3.21987 8.79565 2.32085 9.90093 2.32085H16.3159C17.4212 2.32085 18.3202 3.21987 18.3202 4.32515V6.11392H17.6458V4.32515C17.6458 3.59185 17.0492 2.99526 16.3159 2.99526H9.90093C9.16762 2.99526 8.57104 3.59185 8.57104 4.32515V6.11392H7.89663V4.32515ZM6.89492 6.83213C6.89492 6.78066 6.93662 6.73897 6.98808 6.73897H9.47934C9.53081 6.73897 9.57251 6.78066 9.57251 6.83213V7.81919H6.89492V6.83213ZM24.678 21.5795C24.678 22.7372 23.7363 23.6789 22.5786 23.6789H3.63794C2.48027 23.6789 1.53862 22.7372 1.53862 21.5795V15.8763C4.75254 16.7207 7.99516 17.2081 11.2523 17.3396V18.67C11.2523 19.1115 11.6113 19.4705 12.0529 19.4705H14.1637C14.6053 19.4705 14.9643 19.1115 14.9643 18.67V17.3356C18.1991 17.1981 21.442 16.7117 24.678 15.8749V21.5795ZM11.8456 18.67V15.5131C11.8456 15.3988 11.9386 15.3059 12.0528 15.3059H14.1637C14.278 15.3059 14.3709 15.3988 14.3709 15.5131V18.67C14.3709 18.7842 14.278 18.8771 14.1637 18.8771H12.0528C11.9386 18.8771 11.8456 18.7842 11.8456 18.67ZM24.678 15.2658C21.4418 16.1136 18.1989 16.6027 14.9642 16.7418V15.5131C14.9642 15.0716 14.6052 14.7126 14.1637 14.7126H12.0528C11.6113 14.7126 11.2523 15.0716 11.2523 15.5131V16.7465C7.99482 16.6131 4.75166 16.1224 1.53857 15.2668V10.5119C1.53857 9.35425 2.48022 8.4126 3.63789 8.4126H22.5786C23.7363 8.4126 24.6779 9.35425 24.6779 10.5119L24.678 15.2658Z" fill="#585D69"/>
</g>
<defs>
<clipPath id="clip0_1166_256">
<rect width="26" height="26" fill="white" transform="translate(0.5)"/>
</clipPath>
</defs>
</svg>
