<svg width="32" height="30" viewBox="0 0 32 30" fill="none" xmlns="http://www.w3.org/2000/svg">
<path d="M21.2323 6.5085V13.2972C21.2323 15.9979 19.0441 18.1906 16.3388 18.1906C14.9883 18.1906 13.7616 17.6459 12.8781 16.7578C11.9946 15.8698 11.4453 14.6521 11.4453 13.2971V6.50844C11.4453 3.80305 13.6334 1.61035 16.3388 1.61035C17.6892 1.61035 18.916 2.15967 19.7995 3.04314C20.683 3.93131 21.2323 5.15352 21.2323 6.5085Z" fill="#D6E4FF"/>
<path d="M8.375 15.7962C8.375 20.03 11.7006 23.4921 15.8753 23.7313V27.9309H10.3294C10.0764 27.9309 9.87166 28.1359 9.87166 28.3887C9.87166 28.6416 10.0764 28.8465 10.3294 28.8465H22.3368C22.5898 28.8465 22.7946 28.6416 22.7946 28.3887C22.7946 28.1359 22.5899 27.9309 22.3368 27.9309H16.7909V23.7313C20.9656 23.4921 24.2912 20.03 24.2912 15.7962C24.2912 15.5434 24.0865 15.3384 23.8335 15.3384C23.5804 15.3384 23.3757 15.5433 23.3757 15.7962C23.3757 19.6796 20.2165 22.839 16.3331 22.839C12.4497 22.839 9.29059 19.6795 9.29059 15.7962C9.29059 15.5434 9.08586 15.3384 8.83279 15.3384C8.57973 15.3384 8.375 15.5433 8.375 15.7962Z" fill="#585D69"/>
<path d="M30.064 10.0737C30.153 11.9602 29.503 13.768 28.2334 15.1637C28.0636 15.3507 28.0774 15.6402 28.2643 15.8103C28.4511 15.9805 28.741 15.9666 28.9111 15.7797C30.3447 14.203 31.0793 12.1614 30.9787 10.0303C30.8772 7.9002 29.9523 5.93748 28.3751 4.50364C28.1887 4.33401 27.8986 4.34742 27.7282 4.53428C27.5584 4.72137 27.5722 5.01106 27.7591 5.18092C29.1556 6.45047 29.9742 8.18813 30.064 10.0737Z" fill="#585D69"/>
<path d="M27.2017 9.90047C27.3385 11.0214 27.0296 12.1287 26.3322 13.0183C26.1762 13.2172 26.211 13.5049 26.41 13.6609C26.6111 13.8181 26.8984 13.7802 27.0529 13.5829C27.9009 12.5009 28.2768 11.1537 28.111 9.79026C27.9568 8.51754 27.3372 7.35504 26.3662 6.5171C26.1753 6.35169 25.8852 6.37313 25.7207 6.5645C25.5553 6.75581 25.5767 7.04485 25.7681 7.21003C26.566 7.89891 27.0752 8.85446 27.2017 9.90047Z" fill="#585D69"/>
<path d="M24.8671 10.3213C24.8908 10.8191 24.7192 11.2959 24.3843 11.664C24.2144 11.8511 24.2283 12.1405 24.4151 12.3106C24.6013 12.4802 24.8904 12.4677 25.062 12.28C25.5613 11.7308 25.8166 11.0198 25.7813 10.278C25.7464 9.53587 25.4241 8.85238 24.8751 8.35304C24.6887 8.18382 24.3986 8.19683 24.2283 8.38409C24.0584 8.57118 24.0722 8.86064 24.2591 9.03073C24.6275 9.36531 24.8434 9.82374 24.8671 10.3213Z" fill="#585D69"/>
<path d="M4.41095 15.8103C4.59781 15.6402 4.6117 15.3507 4.44177 15.1636C3.17199 13.7675 2.52201 11.96 2.61136 10.0737C2.70101 8.18789 3.5195 6.45029 4.91602 5.18115C5.10288 5.01105 5.11677 4.7216 4.94685 4.53451C4.77652 4.34718 4.48683 4.33423 4.29998 4.50345C2.72263 5.9373 1.7979 7.90025 1.69665 10.0304C1.59587 12.161 2.32988 14.2028 3.76396 15.7797C3.93547 15.9671 4.22451 15.98 4.41095 15.8103Z" fill="#585D69"/>
<path d="M5.6199 13.583C5.77436 13.7802 6.0617 13.8181 6.26274 13.6609C6.46166 13.5049 6.49653 13.2173 6.34055 13.0183C5.64317 12.1287 5.33426 11.0214 5.47102 9.90028C5.59752 8.85444 6.1067 7.89889 6.90463 7.21001C7.09594 7.04483 7.11744 6.75585 6.95203 6.56448C6.78709 6.37317 6.49694 6.35167 6.30651 6.51708C5.33561 7.35508 4.71598 8.51758 4.56176 9.79006C4.39594 11.1538 4.77188 12.5009 5.6199 13.583Z" fill="#585D69"/>
<path d="M7.61319 12.28C7.78458 12.4675 8.07362 12.4804 8.26007 12.3107C8.44692 12.1406 8.46081 11.8511 8.29089 11.664C7.95608 11.2959 7.7844 10.8191 7.80808 10.3213C7.83175 9.82376 8.04767 9.36538 8.41605 9.03076C8.6029 8.86066 8.61679 8.5712 8.44687 8.38411C8.27653 8.19679 7.98685 8.18384 7.79999 8.35306C7.25103 8.8524 6.9287 9.53589 6.89384 10.278C6.85862 11.0198 7.11386 11.7308 7.61319 12.28Z" fill="#585D69"/>
<path d="M10.9844 13.2972C10.9844 16.2029 13.3241 18.6485 16.3358 18.6485C19.2867 18.6485 21.6873 16.2479 21.6873 13.2972V6.50854C21.6873 3.57832 19.3247 1.15283 16.3358 1.15283C13.3849 1.15283 10.9844 3.55541 10.9844 6.50854C10.9844 6.69674 10.9844 13.3614 10.9844 13.2972ZM16.3358 2.06842C18.8124 2.06842 20.7717 4.07713 20.7717 6.50859V13.2973C20.7717 15.7432 18.782 17.733 16.3358 17.733C13.8725 17.733 11.9578 15.7643 11.9048 13.3979H14.1038C14.3568 13.3979 14.5616 13.1929 14.5616 12.9401C14.5616 12.6872 14.3568 12.4823 14.1038 12.4823H11.8999V10.3596H14.1038C14.3568 10.3596 14.5616 10.1546 14.5616 9.90176C14.5616 9.64893 14.3568 9.44396 14.1038 9.44396H11.8999V7.32123H14.1038C14.3568 7.32123 14.5616 7.11627 14.5616 6.86344C14.5616 6.61061 14.3568 6.40564 14.1038 6.40564H11.9051C11.9605 4.00512 13.9244 2.06842 16.3358 2.06842Z" fill="#585D69"/>
</svg>
