<svg width="32" height="30" viewBox="0 0 32 30" fill="none" xmlns="http://www.w3.org/2000/svg">
<path d="M2.91406 9.69328V13.2844C2.91406 14.2586 3.70385 15.0485 4.67815 15.0485H21.7516C22.7259 15.0485 23.5157 14.2587 23.5157 13.2844V9.69328C23.5157 8.71904 22.7259 7.9292 21.7516 7.9292H4.67809C3.70385 7.92926 2.91406 8.71904 2.91406 9.69328Z" fill="#D6E4FF"/>
<path d="M23.5157 16.8124V20.4035C23.5157 21.3778 22.7259 22.1676 21.7516 22.1676H4.67815C3.70391 22.1676 2.91406 21.3778 2.91406 20.4035V16.8124C2.91406 15.8382 3.70385 15.0483 4.67815 15.0483H21.7516C22.7259 15.0483 23.5157 15.8382 23.5157 16.8124Z" fill="white"/>
<path d="M23.5157 2.57365V6.16475C23.5157 7.13898 22.7259 7.92883 21.7516 7.92883H4.67815C3.70391 7.92883 2.91406 7.13904 2.91406 6.16475V2.57365C2.91406 1.59941 3.70385 0.80957 4.67815 0.80957H21.7516C22.7259 0.80957 23.5157 1.59936 23.5157 2.57365Z" fill="white"/>
<path d="M28.1917 19.0879V24.4758C28.1917 24.748 28.0874 25.0097 27.9003 25.2073L24.4424 28.8587C24.0228 29.3018 23.3173 29.3018 22.8977 28.8587L19.4398 25.2073C19.2527 25.0097 19.1484 24.748 19.1484 24.4758V19.0879C19.1484 18.6478 19.4566 18.2677 19.8872 18.1768L23.4776 17.4185C23.6045 17.3917 23.7356 17.3917 23.8625 17.4185L27.4529 18.1768C27.8836 18.2677 28.1917 18.6478 28.1917 19.0879Z" fill="#D6E4FF"/>
<path d="M6.68435 19.0655H6.79568C7.04869 19.0655 7.25347 18.8605 7.25347 18.6077C7.25347 18.3549 7.04875 18.1499 6.79568 18.1499H6.68435C6.43135 18.1499 6.22656 18.3549 6.22656 18.6077C6.22656 18.8605 6.43135 19.0655 6.68435 19.0655Z" fill="#585D69"/>
<path d="M9.54373 19.0655H9.65547C9.90848 19.0655 10.1133 18.8605 10.1133 18.6077C10.1133 18.3549 9.90854 18.1499 9.65547 18.1499H9.54373C9.29072 18.1499 9.08594 18.3549 9.08594 18.6077C9.08594 18.8605 9.29072 19.0655 9.54373 19.0655Z" fill="#585D69"/>
<path d="M19.6375 11.9463H19.7489C20.0019 11.9463 20.2067 11.7414 20.2067 11.4886C20.2067 11.2357 20.0019 11.0308 19.7489 11.0308H19.6375C19.3845 11.0308 19.1797 11.2357 19.1797 11.4886C19.1797 11.7414 19.3845 11.9463 19.6375 11.9463Z" fill="#585D69"/>
<path d="M16.778 11.9463H16.8894C17.1424 11.9463 17.3472 11.7414 17.3472 11.4886C17.3472 11.2357 17.1424 11.0308 16.8894 11.0308H16.778C16.525 11.0308 16.3203 11.2357 16.3203 11.4886C16.3203 11.7414 16.525 11.9463 16.778 11.9463Z" fill="#585D69"/>
<path d="M13.9187 11.9463H14.0304C14.2835 11.9463 14.4882 11.7414 14.4882 11.4886C14.4882 11.2357 14.2835 11.0308 14.0304 11.0308H13.9187C13.6657 11.0308 13.4609 11.2357 13.4609 11.4886C13.4609 11.7414 13.6657 11.9463 13.9187 11.9463Z" fill="#585D69"/>
<path d="M12.4109 19.0655H12.5223C12.7753 19.0655 12.9801 18.8605 12.9801 18.6077C12.9801 18.3549 12.7753 18.1499 12.5223 18.1499H12.4109C12.1579 18.1499 11.9531 18.3549 11.9531 18.6077C11.9531 18.8605 12.1579 19.0655 12.4109 19.0655Z" fill="#585D69"/>
<path d="M23.978 6.16508V2.57381C23.978 1.34873 22.9811 0.352051 21.7563 0.352051H4.6827C3.4578 0.352051 2.46094 1.34873 2.46094 2.57381V6.16508C2.46094 6.88689 2.81233 7.52299 3.34717 7.9291C2.81233 8.33516 2.46094 8.97131 2.46094 9.69312V13.2842C2.46094 14.006 2.81239 14.6422 3.34723 15.0483C2.81233 15.4544 2.46094 16.0905 2.46094 16.8124V20.4034C2.46094 21.6285 3.45786 22.6254 4.6827 22.6254H18.6927V24.4762C18.6927 24.8664 18.8407 25.2379 19.1094 25.5222L22.5677 29.1738C23.167 29.8064 24.1768 29.807 24.7773 29.1736L28.2351 25.522C28.5038 25.2379 28.6518 24.8664 28.6518 24.4762V19.0883C28.6518 18.4356 28.1882 17.8641 27.5499 17.7291L23.9781 16.9751V16.8124C23.9781 16.0906 23.6266 15.4545 23.0918 15.0484C23.6267 14.6422 23.9781 14.006 23.9781 13.2842V9.69318C23.9781 8.97137 23.6267 8.33527 23.0918 7.92916C23.6266 7.52299 23.978 6.88684 23.978 6.16508ZM27.7362 19.0882V24.476C27.7362 24.6314 27.6772 24.7794 27.5699 24.8927L24.1125 28.5438C23.881 28.7884 23.463 28.7881 23.2323 28.5441L19.7746 24.8929C19.6673 24.7794 19.6083 24.6314 19.6083 24.4761V19.0882C19.6083 18.8658 19.7665 18.6709 19.9842 18.6249L23.5748 17.8665C23.6375 17.8532 23.7063 17.8528 23.7696 17.8667L27.3602 18.6249C27.578 18.6709 27.7362 18.8657 27.7362 19.0882ZM23.0625 16.8123V17.039L19.7947 17.729C19.1563 17.864 18.6927 18.4355 18.6927 19.0882V21.7098H4.6827C3.96252 21.7098 3.37647 21.1238 3.37647 20.4034V16.8123C3.37647 16.0921 3.96252 15.5061 4.6827 15.5061H21.7563C22.4764 15.5061 23.0625 16.0921 23.0625 16.8123ZM23.0625 9.69307V13.2841C23.0625 14.0045 22.4764 14.5906 21.7563 14.5906H4.6827C3.96252 14.5906 3.37647 14.0045 3.37647 13.2841V9.69307C3.37647 8.97289 3.96252 8.38684 4.6827 8.38684H21.7563C22.4764 8.38684 23.0625 8.97289 23.0625 9.69307ZM4.6827 7.47131C3.96252 7.47131 3.37647 6.88525 3.37647 6.16508V2.57381C3.37647 1.85363 3.96252 1.26758 4.6827 1.26758H21.7563C22.4764 1.26758 23.0625 1.85363 23.0625 2.57381V6.16508C23.0625 6.88525 22.4764 7.47131 21.7563 7.47131H4.6827Z" fill="#585D69"/>
<path d="M12.5223 3.91162H12.4109C12.1579 3.91162 11.9531 4.11658 11.9531 4.36941C11.9531 4.62225 12.1579 4.82721 12.4109 4.82721H12.5223C12.7753 4.82721 12.9801 4.62225 12.9801 4.36941C12.9801 4.11658 12.7753 3.91162 12.5223 3.91162Z" fill="#585D69"/>
<path d="M9.65547 3.91162H9.54373C9.29072 3.91162 9.08594 4.11658 9.08594 4.36941C9.08594 4.62225 9.29066 4.82721 9.54373 4.82721H9.65547C9.90848 4.82721 10.1133 4.62225 10.1133 4.36941C10.1133 4.11658 9.90854 3.91162 9.65547 3.91162Z" fill="#585D69"/>
<path d="M6.79568 3.91162H6.68435C6.43135 3.91162 6.22656 4.11658 6.22656 4.36941C6.22656 4.62225 6.43129 4.82721 6.68435 4.82721H6.79568C7.04869 4.82721 7.25347 4.62225 7.25347 4.36941C7.25347 4.11658 7.04869 3.91162 6.79568 3.91162Z" fill="#585D69"/>
<path d="M22.2586 22.4418C22.1058 22.2416 21.8174 22.2029 21.6171 22.3567C21.4164 22.5103 21.378 22.7975 21.5318 22.9984L22.834 24.7003C22.9149 24.806 23.0378 24.8713 23.171 24.8791C23.3117 24.8861 23.4379 24.8321 23.5264 24.7401L27.4067 20.7235C27.5823 20.5415 27.5774 20.2518 27.3955 20.0762C27.2144 19.9005 26.9234 19.9058 26.7486 20.0874L23.2376 23.7215L22.2586 22.4418Z" fill="#585D69"/>
</svg>
