<svg width="32" height="30" viewBox="0 0 32 30" fill="none" xmlns="http://www.w3.org/2000/svg">
<path d="M29.3415 7.74801V19.3789H2.21094V7.74801C2.21094 6.6601 3.09266 5.77832 4.18063 5.77832H27.3718C28.4598 5.77832 29.3415 6.66004 29.3415 7.74801Z" fill="white"/>
<path d="M2.21094 19.3794V22.5901C2.21094 23.6787 3.09336 24.561 4.18186 24.561H27.3706C28.459 24.561 29.3415 23.6786 29.3415 22.5901V19.3794H2.21094Z" fill="#D6E4FF"/>
<path d="M18.8423 24.561L20.0368 29.2847H11.5234L12.7179 24.561H18.8423Z" fill="#E9DECE"/>
<path d="M25.7457 2.2091V10.6468C25.7457 11.4717 25.078 12.141 24.2514 12.141H16.9916L13.3915 16.0201V12.141H11.7364C10.9115 12.141 10.2422 11.4717 10.2422 10.6468V2.2091C10.2422 1.38422 10.9115 0.714844 11.7364 0.714844H24.2514C25.078 0.714844 25.7457 1.38422 25.7457 2.2091Z" fill="#D6E4FF"/>
<path d="M29.6962 7.74799C29.6962 6.46502 28.6525 5.42111 27.3695 5.42111H26.0993V2.20924C26.0993 1.18836 25.2688 0.35791 24.2479 0.35791H11.733C10.7121 0.35791 9.88166 1.18836 9.88166 2.20924V5.42111H4.17832C2.89535 5.42111 1.85156 6.46502 1.85156 7.74799V22.5902C1.85156 23.8739 2.89588 24.9183 4.17955 24.9183H12.253L11.2391 28.9277H9.22266C9.02543 28.9277 8.86553 29.0875 8.86553 29.2848C8.86553 29.4821 9.02537 29.642 9.22266 29.642H22.3251C22.5223 29.642 22.6822 29.4821 22.6822 29.2848C22.6822 29.0875 22.5224 28.9277 22.3251 28.9277H20.3087L19.2948 24.9183H27.3682C28.6519 24.9183 29.6962 23.8739 29.6962 22.5902C29.6962 16.1367 29.6962 9.90711 29.6962 7.74799ZM10.5959 2.20924C10.5959 1.58234 11.1061 1.07217 11.733 1.07217H24.2479C24.8749 1.07217 25.3851 1.58234 25.3851 2.20924V10.647C25.3851 11.2739 24.8749 11.784 24.2479 11.784H16.9881C16.8888 11.784 16.7939 11.8255 16.7264 11.8983L13.7452 15.1105V12.1412C13.7452 11.9439 13.5853 11.784 13.388 11.784H11.733C11.1061 11.784 10.5959 11.2739 10.5959 10.647V2.20924ZM2.56582 7.74799C2.56582 6.85883 3.28916 6.13537 4.17832 6.13537H9.88166V10.647C9.88166 11.6679 10.7121 12.4983 11.733 12.4983H13.0309V16.0203C13.0309 16.1671 13.1209 16.299 13.2576 16.3527C13.3955 16.4066 13.5506 16.37 13.6497 16.2631L17.1439 12.4983H24.2479C25.2688 12.4983 26.0993 11.6679 26.0993 10.647V6.13537H27.3695C28.2586 6.13537 28.982 6.85883 28.982 7.74799V19.0216H2.56582V7.74799ZM19.5719 28.9278H11.9758L12.9897 24.9184H18.5581L19.5719 28.9278ZM28.982 22.5902C28.982 23.4801 28.2581 24.2041 27.3682 24.2041C22.1918 24.2041 9.38227 24.2041 4.17955 24.2041C3.28969 24.2041 2.56582 23.4801 2.56582 22.5902V19.7367H28.982V22.5902Z" fill="#585D69"/>
<path d="M14.6852 22.3275H16.8653C17.0625 22.3275 17.2224 22.1677 17.2224 21.9704C17.2224 21.7731 17.0626 21.6133 16.8653 21.6133H14.6852C14.488 21.6133 14.3281 21.7731 14.3281 21.9704C14.3281 22.1677 14.488 22.3275 14.6852 22.3275Z" fill="#585D69"/>
<path d="M15.5773 8.58965C15.7169 8.72916 15.9428 8.72916 16.0824 8.58965C16.2219 8.45014 16.2219 8.22415 16.0824 8.08463L14.1591 6.16135L16.0824 4.23807C16.2219 4.09856 16.2219 3.87256 16.0824 3.73305C15.9428 3.59354 15.7169 3.59354 15.5773 3.73305L13.4015 5.90887C13.262 6.04838 13.262 6.27438 13.4015 6.41389L15.5773 8.58965Z" fill="#585D69"/>
<path d="M19.9093 8.58922C20.0488 8.72873 20.2748 8.72873 20.4143 8.58922L22.5901 6.4134C22.7296 6.27389 22.7296 6.0479 22.5901 5.90838L20.4143 3.73256C20.2748 3.59305 20.0488 3.59305 19.9093 3.73256C19.7698 3.87208 19.7698 4.09807 19.9093 4.23758L21.8326 6.16086L19.9093 8.08415C19.7698 8.22377 19.7698 8.44977 19.9093 8.58922Z" fill="#585D69"/>
<path d="M17.0831 9.20461C17.2717 9.26104 17.4709 9.15399 17.5275 8.96467L19.1428 3.56262C19.1993 3.37371 19.0919 3.17467 18.9028 3.11819C18.7137 3.06141 18.5149 3.1691 18.4584 3.35813L16.8432 8.76018C16.7867 8.94903 16.8941 9.14813 17.0831 9.20461Z" fill="#585D69"/>
</svg>
