<svg width="31" height="30" viewBox="0 0 31 30" fill="none" xmlns="http://www.w3.org/2000/svg">
<g clip-path="url(#clip0_1166_186)">
<path d="M27.1183 6.09445H22.434V4.69564C22.434 3.53508 21.4932 2.59424 20.3326 2.59424H10.6737C9.51311 2.59424 8.57227 3.53508 8.57227 4.69564V6.09445H3.88799C2.46557 6.09445 1.3125 7.24752 1.3125 8.66994V24.8302C1.3125 26.2526 2.46557 27.4057 3.88799 27.4057H27.1183C28.5407 27.4057 29.6938 26.2526 29.6938 24.8302V8.67C29.6938 7.24758 28.5407 6.09445 27.1183 6.09445Z" fill="white"/>
<path d="M21.3121 22.2927C24.5219 19.083 24.5219 13.8789 21.3121 10.6692C18.1024 7.45941 12.8983 7.45941 9.68857 10.6692C6.47881 13.8789 6.47881 19.083 9.68857 22.2927C12.8983 25.5025 18.1024 25.5025 21.3121 22.2927Z" fill="#D6E4FF"/>
<path d="M20.8684 17.758C21.5691 14.7936 19.7341 11.8225 16.7697 11.1218C13.8054 10.4211 10.8342 12.2561 10.1335 15.2205C9.43282 18.1848 11.2678 21.1559 14.2322 21.8567C17.1965 22.5574 20.1677 20.7223 20.8684 17.758Z" fill="white"/>
<path d="M6.86346 5.03947V6.09451H4.08594V5.03947C4.08594 4.53439 4.49539 4.125 5.00041 4.125H5.94893C6.45401 4.12494 6.86346 4.53439 6.86346 5.03947Z" fill="#D6E4FF"/>
<path d="M27.1151 5.6365H22.8886V4.69549C22.8886 3.2842 21.7406 2.13623 20.3295 2.13623H10.6704C9.25941 2.13623 8.11144 3.2842 8.11144 4.69549V5.6365H7.32218V5.03932C7.32218 4.2827 6.7066 3.66717 5.95003 3.66717H5.0014C4.24478 3.66717 3.62925 4.28275 3.62925 5.03932V5.64951C2.07611 5.78 0.851562 7.08359 0.851562 8.6699V24.83C0.851562 26.5026 2.21234 27.8633 3.8849 27.8633H27.115C28.7876 27.8633 30.1483 26.5026 30.1483 24.83V8.6699C30.1484 6.99728 28.7876 5.6365 27.1151 5.6365ZM4.54472 5.03932C4.54472 4.78742 4.74945 4.5827 5.00134 4.5827H5.94998C6.20187 4.5827 6.4066 4.78742 6.4066 5.03932V5.6365H4.54472V5.03932ZM29.2329 24.8299C29.2329 25.9978 28.2829 26.9478 27.1151 26.9478H3.8849C2.71701 26.9478 1.76709 25.9978 1.76709 24.8299V8.6699C1.76709 7.50201 2.71701 6.55209 3.8849 6.55209C4.00543 6.55209 6.98644 6.55209 6.86439 6.55209H8.56918C8.82195 6.55209 9.02697 6.34713 9.02697 6.0943V4.69555C9.02697 3.78916 9.76437 3.05182 10.6704 3.05182H20.3295C21.2356 3.05182 21.973 3.78922 21.973 4.69555V6.0943C21.973 6.34707 22.1779 6.55209 22.4308 6.55209H27.1151C28.2829 6.55209 29.2329 7.50201 29.2329 8.6699V24.8299Z" fill="#585D69"/>
<path d="M15.4984 7.80322C10.7134 7.80322 6.82031 11.6963 6.82031 16.4813C6.82031 21.2666 10.7134 25.1596 15.4984 25.1596C20.2835 25.1596 24.1765 21.2665 24.1765 16.4813C24.1765 11.6963 20.2835 7.80322 15.4984 7.80322ZM15.4984 24.244C11.2181 24.244 7.73583 20.7616 7.73583 16.4813C7.73583 12.201 11.2181 8.71875 15.4984 8.71875C19.7788 8.71875 23.261 12.2009 23.261 16.4813C23.261 20.7617 19.7788 24.244 15.4984 24.244Z" fill="#585D69"/>
<path d="M15.4976 10.5068C12.2034 10.5068 9.52344 13.1868 9.52344 16.481C9.52344 19.7752 12.2034 22.4552 15.4976 22.4552C18.7918 22.4552 21.4718 19.7752 21.4718 16.481C21.4718 13.1868 18.7918 10.5068 15.4976 10.5068ZM15.4976 21.5396C12.7083 21.5396 10.439 19.2702 10.439 16.481C10.439 13.6918 12.7084 11.4224 15.4976 11.4224C18.2869 11.4224 20.5563 13.6918 20.5563 16.481C20.5563 19.2702 18.2869 21.5396 15.4976 21.5396Z" fill="#585D69"/>
<path d="M15.4969 13.0601C15.2441 13.0601 15.0391 13.265 15.0391 13.5179C15.0391 13.7707 15.2441 13.9756 15.4969 13.9756C16.8785 13.9756 18.0025 15.0995 18.0025 16.4811C18.0025 16.7338 18.2075 16.9388 18.4603 16.9388C18.7132 16.9388 18.9181 16.7339 18.9181 16.4811C18.9181 14.5947 17.3834 13.0601 15.4969 13.0601Z" fill="#585D69"/>
<path d="M27.3012 8.93604H25.3484C25.0956 8.93604 24.8906 9.141 24.8906 9.39383C24.8906 9.64666 25.0955 9.85162 25.3484 9.85162H27.3012C27.554 9.85162 27.759 9.64666 27.759 9.39383C27.759 9.141 27.5541 8.93604 27.3012 8.93604Z" fill="#585D69"/>
</g>
<defs>
<clipPath id="clip0_1166_186">
<rect width="30" height="30" fill="white" transform="translate(0.5)"/>
</clipPath>
</defs>
</svg>
